<svg xmlns="http://www.w3.org/2000/svg" width="129.732" height="173.104" viewBox="0 0 34.325 45.8"><g transform="translate(-139.94 -215.589)"><path d="M139.94 215.589h34.324v45.8h-34.325z" fill="none"/><ellipse cx="149.119" cy="223.18" rx="2.455" ry="3.044" fill="#0d250f" paint-order="markers stroke fill"/><ellipse ry="3.044" rx="2.455" cy="228.525" cx="149.119" fill="#0d250f" paint-order="markers stroke fill"/><ellipse ry="3.044" rx="2.455" cy="233.87" cx="149.119" fill="#0d250f" paint-order="markers stroke fill"/><path fill="#fff" paint-order="markers stroke fill" d="M148.549 221.375h1.139v14.301h-1.139z"/><ellipse ry="3.044" rx="2.455" cy="243.108" cx="149.119" fill="#0d0d0d" paint-order="markers stroke fill"/><ellipse cx="149.119" cy="248.454" rx="2.455" ry="3.044" fill="#0d0d0d" paint-order="markers stroke fill"/><ellipse cx="149.119" cy="253.799" rx="2.455" ry="3.044" fill="#0d0d0d" paint-order="markers stroke fill"/><path fill="#fff" paint-order="markers stroke fill" d="M148.549 241.303h1.139v14.301h-1.139z"/><ellipse cx="157.102" cy="243.108" rx="2.455" ry="3.044" fill="#0d0d0d" paint-order="markers stroke fill"/><ellipse ry="3.044" rx="2.455" cy="248.454" cx="157.102" fill="#0d0d0d" paint-order="markers stroke fill"/><ellipse ry="3.044" rx="2.455" cy="253.799" cx="157.102" fill="#0d0d0d" paint-order="markers stroke fill"/><path fill="#fff" paint-order="markers stroke fill" d="M156.532 241.303h1.139v14.301h-1.139z"/><ellipse ry="3.044" rx="2.455" cy="243.108" cx="165.085" fill="#0d0d0d" paint-order="markers stroke fill"/><ellipse cx="165.085" cy="248.454" rx="2.455" ry="3.044" fill="#0d0d0d" paint-order="markers stroke fill"/><ellipse cx="165.085" cy="253.799" rx="2.455" ry="3.044" fill="#0d0d0d" paint-order="markers stroke fill"/><path fill="#fff" paint-order="markers stroke fill" d="M164.515 241.303h1.139v14.301h-1.139z"/><ellipse cx="165.085" cy="223.18" rx="2.455" ry="3.044" fill="#0d250f" paint-order="markers stroke fill"/><ellipse ry="3.044" rx="2.455" cy="228.525" cx="165.085" fill="#0d250f" paint-order="markers stroke fill"/><ellipse ry="3.044" rx="2.455" cy="233.87" cx="165.085" fill="#0d250f" paint-order="markers stroke fill"/><path fill="#fff" paint-order="markers stroke fill" d="M164.515 221.375h1.139v14.301h-1.139z"/><ellipse ry="3.044" rx="2.455" cy="223.18" cx="157.102" fill="#0d250f" paint-order="markers stroke fill"/><ellipse cx="157.102" cy="228.525" rx="2.455" ry="3.044" fill="#0d250f" paint-order="markers stroke fill"/><ellipse cx="157.102" cy="233.87" rx="2.455" ry="3.044" fill="#0d250f" paint-order="markers stroke fill"/><path fill="#fff" paint-order="markers stroke fill" d="M156.532 221.375h1.139v14.301h-1.139z"/></g></svg>