<svg xmlns="http://www.w3.org/2000/svg" width="129.732" height="173.104" viewBox="0 0 34.325 45.8"><g transform="translate(-179.64 -214.89)"><path d="M179.64 214.89h34.324v45.801H179.64z" fill="none"/><ellipse ry="2.004" rx="2.119" cy="221.261" cx="196.802" fill="#a41514" paint-order="markers stroke fill"/><ellipse cx="196.802" cy="224.78" rx="2.119" ry="2.004" fill="#a41514" paint-order="markers stroke fill"/><ellipse cx="196.802" cy="228.3" rx="2.119" ry="2.004" fill="#a41514" paint-order="markers stroke fill"/><path fill="#fff" paint-order="markers stroke fill" d="M196.31 220.073h.983v9.415h-.983z"/><ellipse cx="196.802" cy="234.272" rx="2.119" ry="2.004" fill="#0d0d0d" paint-order="markers stroke fill"/><ellipse ry="2.004" rx="2.119" cy="237.791" cx="196.802" fill="#0d0d0d" paint-order="markers stroke fill"/><ellipse ry="2.004" rx="2.119" cy="241.31" cx="196.802" fill="#0d0d0d" paint-order="markers stroke fill"/><path fill="#fff" paint-order="markers stroke fill" d="M196.31 233.083h.983v9.415h-.983z"/><ellipse ry="2.004" rx="2.119" cy="234.272" cx="205.362" fill="#0d250f" paint-order="markers stroke fill"/><ellipse cx="205.362" cy="237.791" rx="2.119" ry="2.004" fill="#0d250f" paint-order="markers stroke fill"/><ellipse cx="205.362" cy="241.31" rx="2.119" ry="2.004" fill="#0d250f" paint-order="markers stroke fill"/><path fill="#fff" paint-order="markers stroke fill" d="M204.87 233.083h.983v9.415h-.983z"/><ellipse cx="188.242" cy="234.272" rx="2.119" ry="2.004" fill="#0d250f" paint-order="markers stroke fill"/><ellipse ry="2.004" rx="2.119" cy="237.791" cx="188.242" fill="#0d250f" paint-order="markers stroke fill"/><ellipse ry="2.004" rx="2.119" cy="241.31" cx="188.242" fill="#0d250f" paint-order="markers stroke fill"/><path fill="#fff" paint-order="markers stroke fill" d="M187.75 233.083h.983v9.415h-.983z"/><ellipse ry="2.004" rx="2.119" cy="247.282" cx="188.242" fill="#0d250f" paint-order="markers stroke fill"/><ellipse cx="188.242" cy="250.801" rx="2.119" ry="2.004" fill="#0d250f" paint-order="markers stroke fill"/><ellipse cx="188.242" cy="254.32" rx="2.119" ry="2.004" fill="#0d250f" paint-order="markers stroke fill"/><path fill="#fff" paint-order="markers stroke fill" d="M187.75 246.094h.983v9.415h-.983z"/><ellipse cx="196.802" cy="247.282" rx="2.119" ry="2.004" fill="#0d0d0d" paint-order="markers stroke fill"/><ellipse ry="2.004" rx="2.119" cy="250.801" cx="196.802" fill="#0d0d0d" paint-order="markers stroke fill"/><ellipse ry="2.004" rx="2.119" cy="254.32" cx="196.802" fill="#0d0d0d" paint-order="markers stroke fill"/><path fill="#fff" paint-order="markers stroke fill" d="M196.31 246.094h.983v9.415h-.983z"/><ellipse ry="2.004" rx="2.119" cy="247.282" cx="205.362" fill="#0d250f" paint-order="markers stroke fill"/><ellipse cx="205.362" cy="250.801" rx="2.119" ry="2.004" fill="#0d250f" paint-order="markers stroke fill"/><ellipse cx="205.362" cy="254.32" rx="2.119" ry="2.004" fill="#0d250f" paint-order="markers stroke fill"/><path fill="#fff" paint-order="markers stroke fill" d="M204.87 246.094h.983v9.415h-.983z"/></g></svg>