<svg xmlns="http://www.w3.org/2000/svg" width="129.732" height="173.104" viewBox="0 0 34.325 45.8"><g transform="translate(-57.258 -216.158)"><path d="M57.258 216.158h34.325v45.8H57.258z" fill="none"/><ellipse ry="3.204" rx="2.584" cy="223.755" cx="68.639" fill="#0d250f" paint-order="markers stroke fill"/><ellipse cx="68.639" cy="229.382" rx="2.584" ry="3.204" fill="#0d250f" paint-order="markers stroke fill"/><ellipse cx="68.639" cy="235.008" rx="2.584" ry="3.204" fill="#0d250f" paint-order="markers stroke fill"/><path fill="#fff" paint-order="markers stroke fill" d="M68.04 221.855h1.199v15.053H68.04z"/><ellipse cx="80.202" cy="243.108" rx="2.584" ry="3.204" fill="#0d250f" paint-order="markers stroke fill"/><ellipse ry="3.204" rx="2.584" cy="248.734" cx="80.202" fill="#0d250f" paint-order="markers stroke fill"/><ellipse ry="3.204" rx="2.584" cy="254.361" cx="80.202" fill="#0d250f" paint-order="markers stroke fill"/><path fill="#fff" paint-order="markers stroke fill" d="M79.602 241.208h1.199v15.053h-1.199z"/><ellipse ry="3.204" rx="2.584" cy="223.755" cx="80.202" fill="#0d0d0d" paint-order="markers stroke fill"/><ellipse cx="80.202" cy="229.382" rx="2.584" ry="3.204" fill="#0d0d0d" paint-order="markers stroke fill"/><ellipse cx="80.202" cy="235.008" rx="2.584" ry="3.204" fill="#0d0d0d" paint-order="markers stroke fill"/><path fill="#fff" paint-order="markers stroke fill" d="M79.602 221.855h1.199v15.053h-1.199z"/><ellipse cx="68.639" cy="243.108" rx="2.584" ry="3.204" fill="#0d0d0d" paint-order="markers stroke fill"/><ellipse ry="3.204" rx="2.584" cy="248.734" cx="68.639" fill="#0d0d0d" paint-order="markers stroke fill"/><ellipse ry="3.204" rx="2.584" cy="254.361" cx="68.639" fill="#0d0d0d" paint-order="markers stroke fill"/><path fill="#fff" paint-order="markers stroke fill" d="M68.04 241.208h1.199v15.053H68.04z"/></g></svg>