<svg xmlns="http://www.w3.org/2000/svg" width="129.732" height="173.104" viewBox="0 0 34.325 45.8"><path d="M0 0h34.325v45.8H0z" fill="none"/><g paint-order="markers stroke fill" transform="translate(-136.163 -109.082)"><circle cx="148.557" cy="145.356" r="4.703" fill="#a41514"/><circle r="3.462" cy="145.356" cx="148.557" fill="#fff"/><circle cx="148.557" cy="145.356" r="2.635" fill="#a41514"/><circle r="1.654" cy="145.356" cx="148.557" fill="#fff"/><circle cx="148.557" cy="145.356" r=".702" fill="#a41514"/><circle r="4.703" cy="145.356" cx="158.093" fill="#a41514"/><circle cx="158.093" cy="145.356" r="3.462" fill="#fff"/><circle r="2.635" cy="145.356" cx="158.093" fill="#a41514"/><circle cx="158.093" cy="145.356" r="1.654" fill="#fff"/><circle r=".702" cy="145.356" cx="158.093" fill="#a41514"/><circle r="4.703" cy="135.951" cx="148.557" fill="#a41514"/><circle cx="148.557" cy="135.951" r="3.462" fill="#fff"/><circle r="2.635" cy="135.951" cx="148.557" fill="#a41514"/><circle cx="148.557" cy="135.951" r="1.654" fill="#fff"/><circle r=".702" cy="135.951" cx="148.557" fill="#a41514"/><circle cx="158.093" cy="135.951" r="4.703" fill="#a41514"/><circle r="3.462" cy="135.951" cx="158.093" fill="#fff"/><circle cx="158.093" cy="135.951" r="2.635" fill="#a41514"/><circle r="1.654" cy="135.951" cx="158.093" fill="#fff"/><circle cx="158.093" cy="135.951" r=".702" fill="#a41514"/><circle r="4.703" cy="118.608" cx="148.557" fill="#222e1d"/><circle cx="148.557" cy="118.608" r="3.462" fill="#fff"/><circle cx="148.557" cy="118.608" r="2.635" fill="#222e1d"/><circle cx="148.557" cy="118.608" r="1.654" fill="#fff"/><circle r=".702" cy="118.608" cx="148.557" fill="#222e1d"/><circle cx="158.093" cy="118.608" r="4.703" fill="#222e1d"/><circle r="3.462" cy="118.608" cx="158.093" fill="#fff"/><circle r="2.635" cy="118.608" cx="158.093" fill="#222e1d"/><circle r="1.654" cy="118.608" cx="158.093" fill="#fff"/><circle cx="158.093" cy="118.608" r=".702" fill="#222e1d"/></g></svg>