<svg xmlns="http://www.w3.org/2000/svg" width="129.732" height="173.104" viewBox="0 0 34.325 45.8"><path d="M0 0h34.325v45.8H0z" fill="none"/><g paint-order="markers stroke fill" transform="translate(-176.057 -109.34)"><circle r="4.703" cy="145.614" cx="188.451" fill="#a41514"/><circle cx="188.451" cy="145.614" r="3.462" fill="#fff"/><circle r="2.635" cy="145.614" cx="188.451" fill="#a41514"/><circle cx="188.451" cy="145.614" r="1.654" fill="#fff"/><circle r=".702" cy="145.614" cx="188.451" fill="#a41514"/><circle cx="197.987" cy="145.614" r="4.703" fill="#a41514"/><circle r="3.462" cy="145.614" cx="197.987" fill="#fff"/><circle cx="197.987" cy="145.614" r="2.635" fill="#a41514"/><circle r="1.654" cy="145.614" cx="197.987" fill="#fff"/><circle cx="197.987" cy="145.614" r=".702" fill="#a41514"/><circle cx="188.451" cy="136.209" r="4.703" fill="#a41514"/><circle r="3.462" cy="136.209" cx="188.451" fill="#fff"/><circle cx="188.451" cy="136.209" r="2.635" fill="#a41514"/><circle r="1.654" cy="136.209" cx="188.451" fill="#fff"/><circle cx="188.451" cy="136.209" r=".702" fill="#a41514"/><circle r="4.703" cy="136.209" cx="197.987" fill="#a41514"/><circle cx="197.987" cy="136.209" r="3.462" fill="#fff"/><circle r="2.635" cy="136.209" cx="197.987" fill="#a41514"/><circle cx="197.987" cy="136.209" r="1.654" fill="#fff"/><circle r=".702" cy="136.209" cx="197.987" fill="#a41514"/><circle cx="202.158" cy="125.434" r="4.703" fill="#222e1d"/><circle r="3.462" cy="125.434" cx="202.158" fill="#fff"/><circle r="2.635" cy="125.434" cx="202.158" fill="#222e1d"/><circle r="1.654" cy="125.434" cx="202.158" fill="#fff"/><circle cx="202.158" cy="125.434" r=".702" fill="#222e1d"/><circle cx="193.219" cy="121.657" r="4.703" fill="#222e1d"/><circle r="3.462" cy="121.657" cx="193.219" fill="#fff"/><circle r="2.635" cy="121.657" cx="193.219" fill="#222e1d"/><circle r="1.654" cy="121.657" cx="193.219" fill="#fff"/><circle cx="193.219" cy="121.657" r=".702" fill="#222e1d"/><circle cx="184.28" cy="117.88" r="4.703" fill="#222e1d"/><circle r="3.462" cy="117.88" cx="184.28" fill="#fff"/><circle r="2.635" cy="117.88" cx="184.28" fill="#222e1d"/><circle r="1.654" cy="117.88" cx="184.28" fill="#fff"/><circle cx="184.28" cy="117.88" r=".702" fill="#222e1d"/></g></svg>