<svg xmlns="http://www.w3.org/2000/svg" width="129.732" height="173.104" viewBox="0 0 34.325 45.8"><path d="M0 0h34.325v45.8H0z" fill="none"/><g paint-order="markers stroke fill" transform="translate(-256.103 -109.562)"><circle r="4.703" cy="132.462" cx="273.265" fill="#a41514"/><circle cx="273.265" cy="132.462" r="3.462" fill="#fff"/><circle r="2.635" cy="132.462" cx="273.265" fill="#a41514"/><circle cx="273.265" cy="132.462" r="1.654" fill="#fff"/><circle r=".702" cy="132.462" cx="273.265" fill="#a41514"/><circle cx="281.899" cy="132.462" r="4.703" fill="#a41514"/><circle r="3.462" cy="132.462" cx="281.899" fill="#fff"/><circle cx="281.899" cy="132.462" r="2.635" fill="#a41514"/><circle r="1.654" cy="132.462" cx="281.899" fill="#fff"/><circle cx="281.899" cy="132.462" r=".702" fill="#a41514"/><circle cx="264.631" cy="132.462" r="4.703" fill="#a41514"/><circle r="3.462" cy="132.462" cx="264.631" fill="#fff"/><circle cx="264.631" cy="132.462" r="2.635" fill="#a41514"/><circle r="1.654" cy="132.462" cx="264.631" fill="#fff"/><circle cx="264.631" cy="132.462" r=".702" fill="#a41514"/><circle r="4.703" cy="119.543" cx="273.265" fill="#0d0d0d"/><circle cx="273.265" cy="119.543" r="3.462" fill="#fff"/><circle cx="273.265" cy="119.543" r="2.635" fill="#0d0d0d"/><circle cx="273.265" cy="119.543" r="1.654" fill="#fff"/><circle r=".702" cy="119.543" cx="273.265" fill="#0d0d0d"/><circle cx="281.899" cy="119.543" r="4.703" fill="#0d0d0d"/><circle r="3.462" cy="119.543" cx="281.899" fill="#fff"/><circle r="2.635" cy="119.543" cx="281.899" fill="#0d0d0d"/><circle r="1.654" cy="119.543" cx="281.899" fill="#fff"/><circle cx="281.899" cy="119.543" r=".702" fill="#0d0d0d"/><circle r="4.703" cy="119.543" cx="264.631" fill="#0d0d0d"/><circle cx="264.631" cy="119.543" r="3.462" fill="#fff"/><circle cx="264.631" cy="119.543" r="2.635" fill="#0d0d0d"/><circle cx="264.631" cy="119.543" r="1.654" fill="#fff"/><circle r=".702" cy="119.543" cx="264.631" fill="#0d0d0d"/><circle cx="264.631" cy="145.381" r="4.703" fill="#222e1d"/><circle r="3.462" cy="145.381" cx="264.631" fill="#fff"/><circle r="2.635" cy="145.381" cx="264.631" fill="#222e1d"/><circle r="1.654" cy="145.381" cx="264.631" fill="#fff"/><circle cx="264.631" cy="145.381" r=".702" fill="#222e1d"/><circle r="4.703" cy="145.381" cx="281.899" fill="#222e1d"/><circle cx="281.899" cy="145.381" r="3.462" fill="#fff"/><circle cx="281.899" cy="145.381" r="2.635" fill="#222e1d"/><circle cx="281.899" cy="145.381" r="1.654" fill="#fff"/><circle r=".702" cy="145.381" cx="281.899" fill="#222e1d"/><circle cx="273.265" cy="145.381" r="4.703" fill="#222e1d"/><circle r="3.462" cy="145.381" cx="273.265" fill="#fff"/><circle r="2.635" cy="145.381" cx="273.265" fill="#222e1d"/><circle r="1.654" cy="145.381" cx="273.265" fill="#fff"/><circle cx="273.265" cy="145.381" r=".702" fill="#222e1d"/></g></svg>