<svg xmlns="http://www.w3.org/2000/svg" width="129.732" height="173.104" viewBox="0 0 34.325 45.801"><path d="M0 0h34.325v45.8H0z" fill="none"/><g fill="#222e1d" stroke="#222e1d" stroke-width=".265"><path d="M12.355 15.924c-.128.963-1.778 3.976-3.023 4.017-.449.015-.744.274.199.926.273.189-.329 1.015-1.033 2.01-.539.76-2.384 2.832-1.877 3.252.793.656 7.284-8.897 7.497-9.351.423-.898.085-5.411-1.632-3.62-1.717 1.79-2.004 1.89-2.008 2.065-.005.175 1.998-.685 1.877.7z"/><path d="M18.6 15.035c-.394.368-.981.75-.31 1.447.672.698 1.628-.413 1.757-.723.13-.31.427-2.468-1.447-.724zm9.698 8.214c-1.526-.644-9.248-4.148-7.992-5.597 1.423-1.643 2.673-.16 3.08-.39.34-.193-.563-1.14-1.14-1.806-.684-.791-1.658-1.795-2.336-1.897.057-1.295-1.76-1.997-2.199-1.662-.931.712.374.468.073 1.918-.05.246-.544 1.229-1.197 2.004-.623.738-1.41 1.273-1.304 1.405.347.347.7-.167.857-.344.464-.525 1.63-.148 1.374.583-.256.73-.972 1.175-1.3 1.358-.33.183-1.776.486-1.718.84.058.354 2.521-.292 2.85-.694.329-.402 1.763-.646 2.238.346.111.233 3.718 5.172 4.559 5.135 2.765-.21 5.686-.553 4.155-1.2z" fill-rule="evenodd"/><path d="M9.066 32.734c-.646-.749-1.033-1.498-.775-1.705.129-.103.866.349 1.528.951.663.603 1.598.644 1.988-.51.39-1.154-.016-2.043-.809-2.152-.768-.107-2.061.006-2.01-.382.028-.202 1.102-.312 1.619-.71.474-.366.867-.802.88-1.309.008-.331-.98-.509-1.25-.654-1.09-.589-.057-.57.75-.786.711-.19 1.465-.68.732-1.414-.288-.287-.932-.475-.175-1.023.64-.463 1.534-1.362 1.947-1.716 1.04-.891.86.771.74 1.206-.113.407-.922.531-.98 1.425-.033.51.307.567.633.73.368.186-.045.877-.326 1.188-.28.311-.478.472-.478.768 0 .296.237.427.388.585.152.159.25 2.408-.294 3.622-.542 1.215-2.285 4.696-3.333 4.444-.911-.218.051-1.51-.775-2.558zM15.373 24.987c.03-.287.248-2.147.313-2.752.065-.604.328-.71.637-.893.308-.182 2.114-.71 2.67-.39.428.247 1.615.923.37 1.835-1.06.775-.956 1.434-.633 1.744.323.31.71.142.994-.039.285-.18.892-1.072 1.318.039.219.569-1.212.864-1.776.953-.563.09-1.259-.01-1.401-.203-.143-.192-.204-1.678.157-2.039.887-.886.347-1.388-.548-1.169-.895.22-.813.576-.813 1.16 0 .585-.642 2.72-1.025 2.705-.382-.016-.293-.67-.263-.95zM18.738 26.931c1.37.165 3.066 1.41 2.834 1.798-.233.388-2.016.285-2.093.853-.078.569 3.385 2.43 3.458 3.472.073 1.041-.439 2.557-1.608 1.461-1.17-1.096-1.973-3.05-2.96-3.05-.986 0-3.33 3.181-4.884 3.181-1.27 0 .353-.646.697-.981.556-.543 2.113-2.13 2.17-2.881.065-.84-1.84-1.092-1.214-1.576.182-.141 2.098 1.562 2.756.648.658-.913.239-1.752-.09-1.935-.33-.183-1.764-.11-2.332-.246-.68-.162 2.597-.812 3.266-.744z"/></g></svg>