<svg xmlns="http://www.w3.org/2000/svg" width="129.732" height="173.104" viewBox="0 0 34.325 45.801"><path d="M0 0h34.325v45.8H0z" fill="none"/><g stroke="#000" stroke-width=".265"><path d="M12.227 16.247c.508.226 2.573.2 4.184-.232 1.256-.337 1.57-.976 2.96-.976.655 0 3.192.348 2.2-.496-.993-.843-2.1-2.497-3.192-1.852-1.092.645-3.346 1.927-4.614 2.267-1.175.315-2.166.33-2.15.66.017.33.345.51.612.629z"/><path d="M21.67 22.233s1.24-.1 1.256.562c.017.661-.099 5.192-.694 6.416-.595 1.224-1.455 2.795-2.25 2.58-.793-.215-.28-1.505-1.19-1.637-.91-.133-1.24-.596-1.091-1.39.149-.793.529-1.19 1.224-1.124.694.066 2.083.281 2.05-.579-.033-.86-3.208-.826-3.208-2.166 0-1.34.397-2.365 1.455-2.53a13.484 13.484 0 012.448-.132zM12.11 24.46s-1.38.327-1.403 1.45c-.023 1.122.781 5.02 1.883 5.296 1.22.304 1.127-.41 1.99-.854.34-.174.956-.358 1.38-.648.789-.54 1.358-1.244 1.389-1.502.047-.398.772-.96.163-1.544-.608-.584-.71-.718-.9-1.38-.254-.889.082-2.034-.853-1.87-.936.163-1.263 1.637-1.217 2.315.047.678-.326 3.482-1.157 3.496-.854.015-.598-.33-.383-.702.826-1.43.82-4.658-.892-4.057zm-2.736 3.099c.873 4.583 4.408 6.713 4.408 5.8 0-1.589.433-1.815 1.252-1.956.818-.14 4.326-.699 4.209 1.125-.117 1.824.187 1.941 1.263 1.357 1.076-.585 3.056-3.113 3.38-3.673.863-1.495 1.239-2.671 1.404-3.167.165-.496.1-1.604.843-1.82.745-.214 1.753-.594 1.042-1.223-.71-.628-1.042-1.19-1.736-1.075-.695.116-.86.182-1.505-.529-.645-.711-.711-1.058-2.232-.926-1.522.132-2.993.281-2.977-.38 0-.825 1.383-.654 1.337-1.286-.047-.631-1.77-.287-2.129-1.146-.233-.561.234-2.327-.608-1.508-.842.818-2.432 1.719-1.648 1.684 1.38-.048 1.028 1.256.999 2.624-.005.245.034.49-.304.742-.337.252-1.946.492-2.122-.28-.175-.771-.316-2.817-.947-2.747-.631.07-.538 2.221-1.006 2.338-.467.117-.678.304-.643.538.035.234 1.579-.023 1.614.842.035.865-2.935 1.766-3.695 1.766-.76 0-.863-.135-1.43-.135-.574 0-.957.44-.63.636.331.198 1.524.63 1.861 2.399z" fill-rule="evenodd"/></g></svg>