<svg xmlns="http://www.w3.org/2000/svg" width="129.732" height="173.104" viewBox="0 0 34.325 45.8"><path d="M0 0h34.325v45.8H0z" fill="none"/><path d="M18.193 20.611c-.485-.4-2.583-.135-2.884.865-.192.636.306.882.049 1.125-.208.196-1.752.423-1.821.145-.612-2.474.422-4.029 1.072-4.068.45-.028.089.835.047 1.523-.041.687 1.717-.067 2.52-.256 1.115-.291.983-.214.947-1.219-.086-.689.725-.788.774.158.03.613.19.76.469 1.002.204.177.697.502 1.326.232.224-.096.749.397-.124.618-.873.221-1.554.706-1.519 1.158.035.452-.07.963 2.089.706 0 0 .365.182-.074.511 0 0-2.603.274-4.86 1.06-1.344.468-3.613.671-3.597.17.015-.5.429-.35.79-.367.956-.047 3.208.349 4.534-1.333.403-.724.695-1.672.262-2.03zm-3.749 7.57c-.313.189-.597.808-.15 1.255.327.328 1.948.323 2.326-.103.407-.46.27-1.165-.207-1.371-.638-.276-1.409-.119-1.969.219zm3.488-2.47c-.312.188-.597.807-.15 1.255.327.328 1.948.323 2.326-.104.407-.459.27-1.165-.207-1.37-.638-.276-1.408-.12-1.969.219zm-3.488.568c-.313.189-.597.808-.15 1.255.327.328 1.948.323 2.326-.103.407-.46.27-1.165-.207-1.371-.638-.276-1.409-.119-1.969.219zm5.37 6.5c.25-.206.874-.322 1.5.147.431.323.785.95.55 1.936-.308 1.284-1.14-.137-1.5-.858-.174-.358-.986-1.28-1.68.091 0 0-.146 1.864 2.192 2.704 0 0 2.1 1.245 2.905-1.389.875-2.858 1.315-3.54.658-4.129-.352-.314-2.54-.398-3.811-.094-1.44.344-2.664.272-2.895.842-.24.59-.086 1.284.094 1.402.37.24 1.422-.198 1.988-.652zm-1.917-5.158c-.312.188-.597.808-.15 1.255.327.328 1.948.323 2.326-.103.407-.46.27-1.166-.207-1.372-.638-.275-1.408-.118-1.969.22zm5.531-.88c.213.072.418.404.054.459-.417.062-2.679-.571-1.723 2.164 0 0-1.125.039-1.68.13-.78.127-2.271-.16-2.299.58l-.036.981s1.602-.344 2.687-.516c1.668-.265 1.551-.56 3.798-.569.671-.01 1.091.706 1.499 1.163 1.415 1.585 2.49 2.017 1.796 2.054-.925.05-1.015-.2-1.482.013-.472.216-1.023 3.587-5.44 6.936-.397.301.057-1.476-.401-2.241-.442-.738-1.67-1.4-1.89-3.004-.07-.506-.622-.575-.904-.337-.374.315-1.768.566-2.058.4-.332-.19-.58-.638.34-.76.276-.036 1.292.272 1.267-.955-.026-1.238-1.516-.73-2.403-.685-1.389.07-1.24 1.395-1.24 1.395 1.614 5.362.84 4.806.84 4.806-1.073-.943-1.515-1.826-1.589-2.071-.105-.356-.246-.853-.062-2.525.157-1.428-.84-1.117-1.112-.94-1.812 1.17-4.415.623-5.076.358-.288-.115-.446-.525-.12-.545.69-.044 3.21.072 4.158-.217 1.313-.401 1.3-.755 1.444-.799.233-.07 1.016.038 1.125.07.722.186 2.885.124 3.596-.167.36-.147.451-.521.488-.872.14-1.314-1.32-.975-2.688-.78-1.102.158-1.233.54-1.221.194.118-3.401-1.11-3.864-.839-4.276.163-.248.02.26 6.16-1.2 1.242-.295 2-.443 2.249-.196.289.287.227.507.888 1.086.948.831 1.26.655 1.874.865z" fill="#a41514" stroke="#a41514" stroke-width=".265"/><path d="M12.467 8.44c-.684.28.107 2.116-1.75 4.353-1.524 1.836-2.869 2.522-2.448 2.942.42.42 2.663-.744 4.074-1.608 1.553-.952 3.151-2.29 2.914-2.58-2.175-2.67-2.106-3.388-2.79-3.107zM16.783 7.878c.943 2.377 2.994 5.884 4.786 6.614 1.88.766 5.116-.475 5.19-1.06.072-.584-.622-.876-1.609-1.022-2.704-.549-6.65-3.92-7.015-6.212-.35-2.187-1.886-1.668-2.449-1.243-2.892 2.186.153.547 1.097 2.923z" stroke="#000" stroke-width=".265"/></svg>