<svg xmlns="http://www.w3.org/2000/svg" width="129.732" height="173.104" viewBox="0 0 34.325 45.8"><path d="M0 0h34.325v45.8H0z" fill="none"/><path d="M8.575 15.748c1.168.518 2.221.474 3.514-.007 2.806-1.043 7.192-2.263 11.667-1.232 1.833.422 3.859 1.37 3.14.272-.44-.674-1.373-2.292-3.31-2.917-3.051-.985-6.27 1.471-12.437 1.878-2.493.165-5.867.544-2.574 2.006z" stroke="#000" stroke-width=".265"/><path d="M18.24 21.816c-.484-.4-2.582-.135-2.883.864-.192.637.306.883.049 1.126-.208.196-1.752.422-1.821.144-.612-2.473.422-4.028 1.072-4.068.45-.027.089.836.048 1.524-.042.687 1.716-.067 2.52-.256 1.114-.292.982-.214.946-1.219-.086-.689.725-.789.774.158.03.613.19.76.469 1.002.204.177.697.502 1.326.232.224-.096.749.396-.124.618-.873.221-1.554.706-1.519 1.158.035.452-.07.963 2.089.705 0 0 .365.183-.074.512 0 0-2.603.274-4.86 1.06-1.344.468-3.613.671-3.597.17.015-.5.429-.35.79-.368.956-.047 3.208.35 4.534-1.333.404-.724.695-1.671.262-2.029zm-3.748 7.57c-.313.188-.597.807-.15 1.255.327.328 1.948.323 2.326-.103.407-.46.27-1.166-.207-1.372-.638-.275-1.409-.118-1.969.22zm3.488-2.47c-.312.188-.597.807-.15 1.255.327.328 1.948.322 2.326-.104.407-.459.27-1.165-.207-1.371-.638-.276-1.408-.118-1.969.22zm-3.488.568c-.313.188-.597.807-.15 1.255.327.328 1.948.323 2.326-.103.407-.46.27-1.166-.207-1.372-.638-.275-1.409-.118-1.969.22zm5.371 6.5c.248-.206.873-.323 1.5.147.43.323.784.95.548 1.936-.307 1.283-1.138-.137-1.498-.859-.175-.357-.987-1.279-1.681.092 0 0-.146 1.863 2.192 2.704 0 0 2.1 1.245 2.905-1.389.875-2.858 1.316-3.54.658-4.129-.352-.315-2.54-.398-3.811-.094-1.44.344-2.664.272-2.895.841-.24.591-.086 1.285.094 1.402.37.241 1.422-.197 1.988-.652zm-1.918-5.158c-.312.188-.597.807-.15 1.255.327.328 1.948.323 2.326-.104.407-.459.27-1.165-.207-1.37-.638-.276-1.408-.12-1.969.219zm5.531-.88c.213.072.418.404.054.459-.417.062-2.679-.571-1.723 2.164 0 0-1.125.038-1.68.129-.78.127-2.271-.16-2.299.58l-.036.982s1.602-.344 2.687-.517c1.668-.264 1.551-.559 3.798-.568.671-.01 1.091.706 1.499 1.163 1.415 1.584 2.49 2.016 1.796 2.054-.925.05-1.015-.2-1.482.013-.472.215-1.023 3.587-5.44 6.936-.397.301.057-1.476-.401-2.241-.442-.738-1.67-1.4-1.89-3.004-.07-.506-.622-.575-.904-.338-.374.316-1.768.567-2.058.402-.332-.19-.579-.64.34-.76.276-.037 1.292.27 1.267-.957-.026-1.237-1.516-.73-2.403-.684-1.389.07-1.24 1.395-1.24 1.395 1.614 5.361.84 4.806.84 4.806-1.073-.943-1.515-1.826-1.589-2.072-.105-.355-.246-.852-.062-2.524.157-1.429-.84-1.117-1.112-.941-1.812 1.17-4.415.624-5.076.359-.288-.115-.446-.525-.12-.545.69-.044 3.21.072 4.158-.217 1.313-.401 1.3-.755 1.444-.799.233-.07 1.016.038 1.125.07.722.186 2.885.124 3.596-.167.36-.148.451-.522.488-.872.14-1.314-1.32-.975-2.688-.78-1.102.158-1.233.54-1.221.194.118-3.401-1.11-3.864-.839-4.276.163-.248.02.26 6.16-1.2 1.242-.295 2-.443 2.249-.196.289.287.227.507.888 1.086.948.831 1.26.655 1.874.865z" fill="#a41514" stroke="#a41514" stroke-width=".265"/><path d="M13.105 7.995c4.117-.903 4.5-2.226 5.522-2.195 1.064.032 2.216 1.323 2.403 1.53.191.213.799.992-.49.705-1.57-.35-2.902-.136-4.088.68-.751.444-2.043 1.264-3.754.442-.799-.383-.853-.885.407-1.162z" stroke="#000" stroke-width=".265"/></svg>