<svg xmlns="http://www.w3.org/2000/svg" width="129.732" height="173.104" viewBox="0 0 34.325 45.8"><path d="M0 0h34.325v45.8H0z" fill="none"/><g transform="translate(66.722 -109.149)"><circle cx="-49.56" cy="132.049" r="11.431" fill="#fff" stroke="#222e1d" stroke-width=".529"/><circle r="9.785" cy="132.049" cx="-49.56" fill="#222e1d" stroke="#222e1d" stroke-width=".453"/><path d="M-39.775 132.049a9.785 9.785 0 01-9.785 9.785 9.785 9.785 0 01-9.785-9.785 9.785 9.785 0 019.785-9.785 9.785 9.785 0 019.785 9.785z" fill="#222e1d" stroke="#222e1d" stroke-width=".453"/><circle r="5.796" cy="132.049" cx="-49.56" fill="#222e1d"/><circle cx="-49.56" cy="132.049" r="5.101" fill="azure"/><path d="M-45.352 132.049a4.208 4.208 0 01-4.208 4.208 4.208 4.208 0 01-4.208-4.208 4.208 4.208 0 014.208-4.208 4.208 4.208 0 014.208 4.208z" fill="#c01c15"/><path d="M-46.832 133.023a1.24 1.24 0 11-1.753 1.753c-.484-.484-1.03-1.814-.546-2.298s1.815.061 2.299.545zM-52.287 133.023a1.24 1.24 0 101.753 1.753c.484-.484 1.03-1.814.545-2.298-.484-.484-1.814.061-2.298.545zM-46.832 131.074a1.24 1.24 0 10-1.753-1.753c-.484.484-1.03 1.815-.546 2.299s1.815-.062 2.299-.546zM-52.287 131.074a1.24 1.24 0 111.753-1.753c.484.484 1.03 1.815.545 2.299-.484.484-1.814-.062-2.298-.546z" fill="#fff"/><g fill="#fff"><path d="M-40.682 134.818a1.779 1.779 0 00-1.146-2.24 1.779 1.779 0 00-1.958.614.676 1.779-72.11 01.832.182.676 1.779-72.11 011.485 1.19.676 1.779-72.11 01-1.9.097.676 1.779-72.11 01-.782-.338 1.779 1.779 0 001.23 1.641 1.779 1.779 0 002.24-1.146zM-43.238 138.876a1.779 1.779 0 00.056-2.516 1.779 1.779 0 00-2.014-.39.676 1.779-43.72 01.645.555.676 1.779-43.72 01.74 1.753.676 1.779-43.72 01-1.717-.819.676 1.779-43.72 01-.527-.669 1.779 1.779 0 00.301 2.03 1.779 1.779 0 002.516.056zM-47.44 141.117a1.779 1.779 0 001.417-2.079 1.779 1.779 0 00-1.476-1.425.676 1.779-10.721 01.238.818.676 1.779-10.721 01-.333 1.874.676 1.779-10.721 01-.995-1.623.676 1.779-10.721 01-.078-.848 1.779 1.779 0 00-.852 1.866 1.779 1.779 0 002.079 1.417zM-52.234 140.96a1.779 1.779 0 002.24-1.146 1.779 1.779 0 00-.614-1.958 1.779.676-72.11 01-.182.832 1.779.676-72.11 01-1.19 1.485 1.779.676-72.11 01-.097-1.9 1.779.676-72.11 01.338-.782 1.779 1.779 0 00-1.642 1.23 1.779 1.779 0 001.147 2.24zM-56.318 138.445a1.779 1.779 0 002.516.056 1.779 1.779 0 00.39-2.014 1.779.676-43.72 01-.555.645 1.779.676-43.72 01-1.753.741 1.779.676-43.72 01.819-1.718 1.779.676-43.72 01.668-.527 1.779 1.779 0 00-2.029.302 1.779 1.779 0 00-.056 2.515zM-58.618 134.224a1.779 1.779 0 002.207 1.21 1.779 1.779 0 001.275-1.608 1.779.676-16.28 01-.79.316 1.779.676-16.28 01-1.898-.15 1.779.676-16.28 011.518-1.147 1.779.676-16.28 01.837-.16 1.779 1.779 0 00-1.94-.667 1.779 1.779 0 00-1.209 2.206zM-58.502 129.472a1.779 1.779 0 001.146 2.24 1.779 1.779 0 001.958-.614 1.779.676 17.89 01-.832-.182 1.779.676 17.89 01-1.485-1.19 1.779.676 17.89 011.9-.097 1.779.676 17.89 01.782.338 1.779 1.779 0 00-1.23-1.641 1.779 1.779 0 00-2.24 1.146zM-56.029 125.363a1.779 1.779 0 00-.056 2.515 1.779 1.779 0 002.014.391 1.779.676 46.28 01-.645-.556 1.779.676 46.28 01-.74-1.753 1.779.676 46.28 011.717.819 1.779.676 46.28 01.527.669 1.779 1.779 0 00-.301-2.03 1.779 1.779 0 00-2.515-.055zM-51.831 123.021a1.779 1.779 0 00-1.21 2.207 1.779 1.779 0 001.608 1.275 1.779.676 73.72 01-.317-.79 1.779.676 73.72 01.15-1.898 1.779.676 73.72 011.148 1.519 1.779.676 73.72 01.16.836 1.779 1.779 0 00.667-1.94 1.779 1.779 0 00-2.206-1.209zM-47.079 123.078a1.779 1.779 0 00-2.239 1.147 1.779 1.779 0 00.614 1.958.676 1.779 17.89 01.181-.832.676 1.779 17.89 011.19-1.486.676 1.779 17.89 01.097 1.901.676 1.779 17.89 01-.338.782 1.779 1.779 0 001.642-1.23 1.779 1.779 0 00-1.147-2.24zM-42.943 125.51a1.779 1.779 0 00-2.515-.056 1.779 1.779 0 00-.391 2.014.676 1.779 46.28 01.555-.645.676 1.779 46.28 011.753-.74.676 1.779 46.28 01-.818 1.717.676 1.779 46.28 01-.669.527 1.779 1.779 0 002.029-.301 1.779 1.779 0 00.056-2.516zM-40.56 129.684a1.779 1.779 0 00-2.207-1.21 1.779 1.779 0 00-1.275 1.608.676 1.779 73.72 01.79-.316.676 1.779 73.72 011.897.15.676 1.779 73.72 01-1.518 1.147.676 1.779 73.72 01-.836.16 1.779 1.779 0 001.94.667 1.779 1.779 0 001.208-2.206z"/></g></g></svg>