<svg xmlns="http://www.w3.org/2000/svg" width="129.732" height="173.104" viewBox="0 0 34.325 45.8"><path d="M0 0h34.325v45.8H0z" fill="none"/><g paint-order="markers stroke fill" transform="translate(-15.787 -109.149)"><circle cx="32.949" cy="132.049" r="5.633" fill="#a41514"/><circle cx="32.949" cy="132.049" r="3.983" fill="#fff"/><circle r="3.053" cy="132.049" cx="32.949" fill="#a41514"/><circle cx="-32.949" cy="-132.049" r="2.114" transform="scale(-1)" fill="#fff"/><circle transform="scale(-1)" r=".977" cy="-132.049" cx="-32.949" fill="#a41514"/><circle cx="26.273" cy="120.567" r="5.633" fill="#222e1d"/><circle cx="26.273" cy="120.567" r="3.983" fill="#fff"/><circle r="3.053" cy="120.567" cx="26.273" fill="#222e1d"/><circle cx="-26.273" cy="-120.567" r="2.114" transform="scale(-1)" fill="#fff"/><circle transform="scale(-1)" r=".977" cy="-120.567" cx="-26.273" fill="#222e1d"/><circle r="5.633" cy="143.302" cx="40.004" fill="#0d0d0d"/><circle r="3.983" cy="143.302" cx="40.004" fill="#fff"/><circle cx="40.004" cy="143.302" r="3.053" fill="#0d0d0d"/><circle transform="scale(-1)" r="2.114" cy="-143.302" cx="-40.004" fill="#fff"/><circle cx="-40.004" cy="-143.302" r=".977" transform="scale(-1)" fill="#0d0d0d"/></g></svg>