<svg xmlns="http://www.w3.org/2000/svg" width="129.732" height="173.104" viewBox="0 0 34.325 45.8"><path d="M0 0h34.325v45.8H0z" fill="none"/><g paint-order="markers stroke fill" transform="translate(-214.287 -109.155)"><circle cx="236.199" cy="127.305" r="4.703" fill="#0d0d0d"/><circle r="3.462" cy="127.305" cx="236.199" fill="#fff"/><circle r="2.635" cy="127.305" cx="236.199" fill="#0d0d0d"/><circle r="1.654" cy="127.305" cx="236.199" fill="#fff"/><circle cx="236.199" cy="127.305" r=".702" fill="#0d0d0d"/><circle r="4.703" cy="136.805" cx="236.199" fill="#0d0d0d"/><circle cx="236.199" cy="136.805" r="3.462" fill="#fff"/><circle cx="236.199" cy="136.805" r="2.635" fill="#0d0d0d"/><circle cx="236.199" cy="136.805" r="1.654" fill="#fff"/><circle r=".702" cy="136.805" cx="236.199" fill="#0d0d0d"/><circle cx="226.699" cy="136.805" r="4.703" fill="#0d0d0d"/><circle r="3.462" cy="136.805" cx="226.699" fill="#fff"/><circle r="2.635" cy="136.805" cx="226.699" fill="#0d0d0d"/><circle r="1.654" cy="136.805" cx="226.699" fill="#fff"/><circle cx="226.699" cy="136.805" r=".702" fill="#0d0d0d"/><circle r="4.703" cy="127.305" cx="226.699" fill="#0d0d0d"/><circle cx="226.699" cy="127.305" r="3.462" fill="#fff"/><circle cx="226.699" cy="127.305" r="2.635" fill="#0d0d0d"/><circle cx="226.699" cy="127.305" r="1.654" fill="#fff"/><circle r=".702" cy="127.305" cx="226.699" fill="#0d0d0d"/><circle r="4.703" cy="117.804" cx="236.199" fill="#0d0d0d"/><circle cx="236.199" cy="117.804" r="3.462" fill="#fff"/><circle cx="236.199" cy="117.804" r="2.635" fill="#0d0d0d"/><circle cx="236.199" cy="117.804" r="1.654" fill="#fff"/><circle r=".702" cy="117.804" cx="236.199" fill="#0d0d0d"/><circle cx="226.699" cy="117.804" r="4.703" fill="#0d0d0d"/><circle r="3.462" cy="117.804" cx="226.699" fill="#fff"/><circle r="2.635" cy="117.804" cx="226.699" fill="#0d0d0d"/><circle r="1.654" cy="117.804" cx="226.699" fill="#fff"/><circle cx="226.699" cy="117.804" r=".702" fill="#0d0d0d"/><circle cx="236.199" cy="146.306" r="4.703" fill="#0d0d0d"/><circle r="3.462" cy="146.306" cx="236.199" fill="#fff"/><circle r="2.635" cy="146.306" cx="236.199" fill="#0d0d0d"/><circle r="1.654" cy="146.306" cx="236.199" fill="#fff"/><circle cx="236.199" cy="146.306" r=".702" fill="#0d0d0d"/><circle r="4.703" cy="146.306" cx="226.699" fill="#0d0d0d"/><circle cx="226.699" cy="146.306" r="3.462" fill="#fff"/><circle cx="226.699" cy="146.306" r="2.635" fill="#0d0d0d"/><circle cx="226.699" cy="146.306" r="1.654" fill="#fff"/><circle r=".702" cy="146.306" cx="226.699" fill="#0d0d0d"/></g></svg>