<svg xmlns="http://www.w3.org/2000/svg" width="129.732" height="173.104" viewBox="0 0 34.325 45.8"><g transform="translate(-99.173 -216.027)"><path d="M99.173 216.027h34.325v45.801H99.173z" fill="none"/><ellipse cx="108.213" cy="223.243" rx="2.584" ry="3.204" fill="#0d250f" paint-order="markers stroke fill"/><ellipse ry="3.204" rx="2.584" cy="228.87" cx="108.213" fill="#0d250f" paint-order="markers stroke fill"/><ellipse ry="3.204" rx="2.584" cy="234.497" cx="108.213" fill="#0d250f" paint-order="markers stroke fill"/><path fill="#fff" paint-order="markers stroke fill" d="M107.613 221.343h1.199v15.053h-1.199z"/><ellipse ry="3.204" rx="2.584" cy="243.359" cx="124.458" fill="#0d250f" paint-order="markers stroke fill"/><ellipse cx="124.458" cy="248.985" rx="2.584" ry="3.204" fill="#0d250f" paint-order="markers stroke fill"/><ellipse cx="124.458" cy="254.612" rx="2.584" ry="3.204" fill="#0d250f" paint-order="markers stroke fill"/><path fill="#fff" paint-order="markers stroke fill" d="M123.858 241.459h1.199v15.053h-1.199z"/><ellipse cx="124.458" cy="223.243" rx="2.584" ry="3.204" fill="#0d0d0d" paint-order="markers stroke fill"/><ellipse ry="3.204" rx="2.584" cy="228.87" cx="124.458" fill="#0d0d0d" paint-order="markers stroke fill"/><ellipse ry="3.204" rx="2.584" cy="234.497" cx="124.458" fill="#0d0d0d" paint-order="markers stroke fill"/><path fill="#fff" paint-order="markers stroke fill" d="M123.858 221.343h1.199v15.053h-1.199z"/><ellipse ry="3.204" rx="2.584" cy="243.359" cx="108.213" fill="#0d0d0d" paint-order="markers stroke fill"/><ellipse cx="108.213" cy="248.985" rx="2.584" ry="3.204" fill="#0d0d0d" paint-order="markers stroke fill"/><ellipse cx="108.213" cy="254.612" rx="2.584" ry="3.204" fill="#0d0d0d" paint-order="markers stroke fill"/><path fill="#fff" paint-order="markers stroke fill" d="M107.613 241.459h1.199v15.053h-1.199z"/><ellipse cx="116.335" cy="233.301" rx="2.584" ry="3.204" fill="#a41514" paint-order="markers stroke fill"/><ellipse ry="3.204" rx="2.584" cy="238.928" cx="116.335" fill="#a41514" paint-order="markers stroke fill"/><ellipse ry="3.204" rx="2.584" cy="244.554" cx="116.335" fill="#a41514" paint-order="markers stroke fill"/><path fill="#fff" paint-order="markers stroke fill" d="M115.736 231.401h1.199v15.053h-1.199z"/></g></svg>