<svg xmlns="http://www.w3.org/2000/svg" width="129.732" height="173.104" viewBox="0 0 34.325 45.8"><g transform="translate(-257.707 -215.012)"><path d="M257.707 215.012h34.325v45.8h-34.325z" fill="none"/><ellipse cx="274.87" cy="234.393" rx="2.119" ry="2.004" fill="#a41514" paint-order="markers stroke fill"/><ellipse ry="2.004" rx="2.119" cy="237.912" cx="274.87" fill="#a41514" paint-order="markers stroke fill"/><ellipse ry="2.004" rx="2.119" cy="241.432" cx="274.87" fill="#a41514" paint-order="markers stroke fill"/><path fill="#fff" paint-order="markers stroke fill" d="M274.378 233.205h.983v9.415h-.983z"/><ellipse ry="2.004" rx="2.119" cy="220.982" cx="274.87" fill="#a41514" paint-order="markers stroke fill"/><ellipse cx="274.87" cy="224.501" rx="2.119" ry="2.004" fill="#a41514" paint-order="markers stroke fill"/><ellipse cx="274.87" cy="228.02" rx="2.119" ry="2.004" fill="#a41514" paint-order="markers stroke fill"/><path fill="#fff" paint-order="markers stroke fill" d="M274.378 219.793h.983v9.415h-.983z"/><ellipse cx="274.87" cy="247.805" rx="2.119" ry="2.004" fill="#a41514" paint-order="markers stroke fill"/><ellipse ry="2.004" rx="2.119" cy="251.324" cx="274.87" fill="#a41514" paint-order="markers stroke fill"/><ellipse ry="2.004" rx="2.119" cy="254.843" cx="274.87" fill="#a41514" paint-order="markers stroke fill"/><path fill="#fff" paint-order="markers stroke fill" d="M274.378 246.616h.983v9.415h-.983z"/><ellipse cx="266.11" cy="220.982" rx="2.119" ry="2.004" fill="#0d250f" paint-order="markers stroke fill"/><ellipse ry="2.004" rx="2.119" cy="224.501" cx="266.11" fill="#0d250f" paint-order="markers stroke fill"/><ellipse ry="2.004" rx="2.119" cy="228.02" cx="266.11" fill="#0d250f" paint-order="markers stroke fill"/><path fill="#fff" paint-order="markers stroke fill" d="M265.619 219.793h.983v9.415h-.983z"/><ellipse ry="2.004" rx="2.119" cy="234.393" cx="266.11" fill="#0d250f" paint-order="markers stroke fill"/><ellipse cx="266.11" cy="237.913" rx="2.119" ry="2.004" fill="#0d250f" paint-order="markers stroke fill"/><ellipse cx="266.11" cy="241.432" rx="2.119" ry="2.004" fill="#0d250f" paint-order="markers stroke fill"/><path fill="#fff" paint-order="markers stroke fill" d="M265.619 233.205h.983v9.415h-.983z"/><ellipse cx="266.11" cy="247.805" rx="2.119" ry="2.004" fill="#0d250f" paint-order="markers stroke fill"/><ellipse ry="2.004" rx="2.119" cy="251.324" cx="266.11" fill="#0d250f" paint-order="markers stroke fill"/><ellipse ry="2.004" rx="2.119" cy="254.843" cx="266.11" fill="#0d250f" paint-order="markers stroke fill"/><path fill="#fff" paint-order="markers stroke fill" d="M265.619 246.616h.983v9.415h-.983z"/><ellipse ry="2.004" rx="2.119" cy="247.805" cx="283.629" fill="#0d0d0d" paint-order="markers stroke fill"/><ellipse cx="283.629" cy="251.324" rx="2.119" ry="2.004" fill="#0d0d0d" paint-order="markers stroke fill"/><ellipse cx="283.629" cy="254.843" rx="2.119" ry="2.004" fill="#0d0d0d" paint-order="markers stroke fill"/><path fill="#fff" paint-order="markers stroke fill" d="M283.138 246.616h.983v9.415h-.983z"/><ellipse cx="283.629" cy="234.393" rx="2.119" ry="2.004" fill="#0d0d0d" paint-order="markers stroke fill"/><ellipse ry="2.004" rx="2.119" cy="237.912" cx="283.629" fill="#0d0d0d" paint-order="markers stroke fill"/><ellipse ry="2.004" rx="2.119" cy="241.432" cx="283.629" fill="#0d0d0d" paint-order="markers stroke fill"/><path fill="#fff" paint-order="markers stroke fill" d="M283.138 233.205h.983v9.415h-.983z"/><ellipse ry="2.004" rx="2.119" cy="220.982" cx="283.629" fill="#0d0d0d" paint-order="markers stroke fill"/><ellipse cx="283.629" cy="224.501" rx="2.119" ry="2.004" fill="#0d0d0d" paint-order="markers stroke fill"/><ellipse cx="283.629" cy="228.02" rx="2.119" ry="2.004" fill="#0d0d0d" paint-order="markers stroke fill"/><path fill="#fff" paint-order="markers stroke fill" d="M283.138 219.793h.983v9.415h-.983z"/></g></svg>