<svg xmlns="http://www.w3.org/2000/svg" width="129.732" height="173.104" viewBox="0 0 34.325 45.8"><g transform="translate(-16.337 -216.093)"><path d="M16.337 216.093h34.325v45.8H16.337z" fill="none"/><ellipse cx="33.499" cy="223.548" rx="2.584" ry="3.204" fill="#0d250f" paint-order="markers stroke fill"/><ellipse ry="3.204" rx="2.584" cy="229.175" cx="33.499" fill="#0d250f" paint-order="markers stroke fill"/><ellipse ry="3.204" rx="2.584" cy="234.801" cx="33.499" fill="#0d250f" paint-order="markers stroke fill"/><path fill="#fff" paint-order="markers stroke fill" d="M32.9 221.648h1.199v15.053H32.9z"/><ellipse cx="41.658" cy="241.945" rx="2.584" ry="3.204" fill="#0d250f" paint-order="markers stroke fill"/><ellipse ry="3.204" rx="2.584" cy="247.572" cx="41.658" fill="#0d250f" paint-order="markers stroke fill"/><ellipse ry="3.204" rx="2.584" cy="253.198" cx="41.658" fill="#0d250f" paint-order="markers stroke fill"/><path fill="#fff" paint-order="markers stroke fill" d="M41.059 240.045h1.199v15.053h-1.199z"/><ellipse ry="3.204" rx="2.584" cy="241.945" cx="25.34" fill="#0d250f" paint-order="markers stroke fill"/><ellipse cx="25.34" cy="247.572" rx="2.584" ry="3.204" fill="#0d250f" paint-order="markers stroke fill"/><ellipse cx="25.34" cy="253.198" rx="2.584" ry="3.204" fill="#0d250f" paint-order="markers stroke fill"/><path fill="#fff" paint-order="markers stroke fill" d="M24.741 240.045h1.199v15.053h-1.199z"/></g></svg>