<svg xmlns="http://www.w3.org/2000/svg" width="129.732" height="173.104" viewBox="0 0 34.325 45.8"><g transform="translate(-218.547 -214.636)"><path d="M218.547 214.636h34.325v45.8h-34.325z" fill="none"/><ellipse cx="227.716" cy="222.128" rx="2.455" ry="3.044" fill="#0d0d0d" paint-order="markers stroke fill"/><ellipse ry="3.044" rx="2.455" cy="227.473" cx="227.716" fill="#0d0d0d" paint-order="markers stroke fill"/><ellipse ry="3.044" rx="2.455" cy="232.818" cx="227.716" fill="#0d0d0d" paint-order="markers stroke fill"/><ellipse transform="rotate(40)" cx="324.861" cy="26.378" rx="2.455" ry="3.044" fill="#0d0d0d" paint-order="markers stroke fill"/><ellipse transform="rotate(40)" cx="324.861" cy="31.723" rx="2.455" ry="3.044" fill="#0d0d0d" paint-order="markers stroke fill"/><ellipse transform="scale(-1 1)" ry="3.044" rx="2.455" cy="222.128" cx="-243.703" fill="#0d0d0d" paint-order="markers stroke fill"/><ellipse transform="scale(-1 1)" cx="-243.703" cy="227.473" rx="2.455" ry="3.044" fill="#0d0d0d" paint-order="markers stroke fill"/><ellipse transform="scale(-1 1)" cx="-243.703" cy="232.818" rx="2.455" ry="3.044" fill="#0d0d0d" paint-order="markers stroke fill"/><ellipse ry="3.044" rx="2.455" cy="329.401" cx="-36.268" transform="scale(-1 1) rotate(40)" fill="#0d0d0d" paint-order="markers stroke fill"/><path d="M235.702 222.121a2.455 3.044 40 00-1.988.956 3.044 2.455 50 00-.073.137 3.044 2.455 50 01.073-.137 2.455 3.044 40 00-.256.274 2.455 3.044 40 00-.076 3.909 2.455 3.044 40 002.328.313 3.044 2.455 50 002.328-.313 3.044 2.455 50 00-.076-3.91 3.044 2.455 50 00-.257-.273 3.044 2.455 50 00-1.995-.956 2.455 3.044 40 00-.008 0zm2.077 1.093a2.455 3.044 40 01.052.098 2.455 3.044 40 00-.052-.098zm-4.19.098a3.044 2.455 50 00-.046.115 3.044 2.455 50 01.046-.115zm4.288.115a2.455 3.044 40 01.049.126 2.455 3.044 40 00-.05-.126zm-4.383.126a3.044 2.455 50 00-.031.114 3.044 2.455 50 01.031-.114zm4.463.114a2.455 3.044 40 01.036.136 2.455 3.044 40 00-.036-.136zm-4.53.136a3.044 2.455 50 00-.022.135 3.044 2.455 50 01.022-.135zm-.041.26a3.044 2.455 50 00-.008.142 3.044 2.455 50 01.008-.141zm-.015.275a3.044 2.455 50 00.006.143 3.044 2.455 50 01-.006-.143zm.013.274a3.044 2.455 50 00.02.151 3.044 2.455 50 01-.02-.15zm4.63.151a2.455 3.044 40 01-.019.134 2.455 3.044 40 00.02-.134zm-4.59.134a3.044 2.455 50 00.028.122 3.044 2.455 50 01-.027-.122zm4.543.122a2.455 3.044 40 01-.04.162 2.455 3.044 40 00.04-.162zm-4.475.162a3.044 2.455 50 00.041.127 3.044 2.455 50 01-.04-.127zm4.389.143a2.455 3.044 40 01-.043.13 2.455 3.044 40 00.011-.035 2.455 3.044 40 00.032-.095zm-4.299.13a3.044 2.455 50 00.064.151 3.044 2.455 50 01-.064-.152zm4.192.151a2.455 3.044 40 01-.054.123 2.455 3.044 40 00.02-.047 2.455 3.044 40 00.034-.076zm-4.074.123a3.044 2.455 50 00.073.138 3.044 2.455 50 01-.073-.138zm3.938.155a2.455 3.044 40 01-.06.112 2.455 3.044 40 00.025-.047 2.455 3.044 40 00.035-.065zm-3.796.112a3.044 2.455 50 00.08.125 3.044 2.455 50 01-.08-.125zm3.647.139a2.455 3.044 40 01-.075.115 2.455 3.044 40 00.038-.058 2.455 3.044 40 00.037-.057zm-3.484.115a3.044 2.455 50 00.094.125 3.044 2.455 50 01-.094-.125zm3.315.125a2.455 3.044 40 01-.101.132 2.455 3.044 40 00.101-.132zm-3.119.132a3.044 2.455 50 00.138.151 3.044 2.455 50 01-.138-.15zm2.887.143a2.455 3.044 40 01-.101.107 2.455 3.044 40 00.101-.107zm-2.653.109a3.044 2.455 50 00.11.102 3.044 2.455 50 01-.11-.102zm2.427.114a2.455 3.044 40 01-.093.083 2.455 3.044 40 00.093-.083zm-2.197.095a3.044 2.455 50 00.11.086 3.044 2.455 50 01-.11-.086zm1.961.1a2.455 3.044 40 01-.103.078 2.455 3.044 40 00.103-.078zm-1.728.079a3.044 2.455 50 00.122.08 3.044 2.455 50 01-.122-.08zm1.505.079a2.455 3.044 40 01-.132.083 2.455 3.044 40 00.132-.083zm-1.251.085a3.044 2.455 50 00.117.064 3.044 2.455 50 01-.117-.064zm.99.068a2.455 3.044 40 01-.124.065 2.455 3.044 40 00.124-.065zm-.734.068a3.044 2.455 50 00.13.057 3.044 2.455 50 01-.13-.057zm.461.062a2.455 3.044 40 01-.156.064 2.455 3.044 40 00.156-.064z" fill="#0d0d0d" paint-order="markers stroke fill"/><ellipse ry="3.044" rx="2.455" cy="334.746" cx="-36.268" transform="scale(-1 1) rotate(40)" fill="#0d0d0d" paint-order="markers stroke fill"/><path d="M227.147 220.322V234.22h1.139l7.424-8.847 7.424 8.847h1.139V220.322h-1.139v12.125l-6.68-7.961-.744-.887-.743.887-6.681 7.96v-12.124z" fill="#fff" paint-order="markers stroke fill"/><ellipse transform="scale(1 -1)" ry="3.044" rx="2.455" cy="-252.945" cx="227.716" fill="#0d250f" paint-order="markers stroke fill"/><ellipse transform="scale(1 -1)" cx="227.716" cy="-247.599" rx="2.455" ry="3.044" fill="#0d250f" paint-order="markers stroke fill"/><ellipse transform="scale(1 -1)" cx="227.716" cy="-242.254" rx="2.455" ry="3.044" fill="#0d250f" paint-order="markers stroke fill"/><ellipse ry="3.044" rx="2.455" cy="-337.548" cx="19.49" transform="scale(1 -1) rotate(40)" fill="#0d250f" paint-order="markers stroke fill"/><ellipse ry="3.044" rx="2.455" cy="-332.203" cx="19.49" transform="scale(1 -1) rotate(40)" fill="#0d250f" paint-order="markers stroke fill"/><ellipse cx="-243.703" cy="-252.945" rx="2.455" ry="3.044" transform="scale(-1)" fill="#0d250f" paint-order="markers stroke fill"/><ellipse ry="3.044" rx="2.455" cy="-247.599" cx="-243.703" transform="scale(-1)" fill="#0d250f" paint-order="markers stroke fill"/><ellipse ry="3.044" rx="2.455" cy="-242.254" cx="-243.703" transform="scale(-1)" fill="#0d250f" paint-order="markers stroke fill"/><ellipse transform="rotate(-140)" cx="-341.638" cy="-34.525" rx="2.455" ry="3.044" fill="#0d250f" paint-order="markers stroke fill"/><path d="M235.702 252.95a3.044 2.455 50 01-1.988-.955 2.455 3.044 40 01-.074-.137 2.455 3.044 40 00.074.137 3.044 2.455 50 01-.256-.274 3.044 2.455 50 01-.076-3.909 3.044 2.455 50 012.328-.312 2.455 3.044 40 012.328.312 2.455 3.044 40 01-.076 3.91 2.455 3.044 40 01-.257.273 2.455 3.044 40 01-1.995.956 3.044 2.455 50 01-.008 0zm2.077-1.092a3.044 2.455 50 00.052-.098 3.044 2.455 50 01-.052.098zm-4.19-.098a2.455 3.044 40 01-.046-.115 2.455 3.044 40 00.046.115zm4.288-.115a3.044 2.455 50 00.049-.126 3.044 2.455 50 01-.05.126zm-4.383-.126a2.455 3.044 40 01-.031-.114 2.455 3.044 40 00.031.114zm4.463-.114a3.044 2.455 50 00.036-.136 3.044 2.455 50 01-.036.136zm-4.53-.136a2.455 3.044 40 01-.022-.135 2.455 3.044 40 00.022.135zm-.041-.26a2.455 3.044 40 01-.008-.142 2.455 3.044 40 00.008.141zm-.015-.275a2.455 3.044 40 01.006-.143 2.455 3.044 40 00-.006.143zm.013-.274a2.455 3.044 40 01.02-.15 2.455 3.044 40 00-.02.15zm4.63-.15a3.044 2.455 50 00-.019-.135 3.044 2.455 50 01.02.134zm-4.59-.135a2.455 3.044 40 01.028-.122 2.455 3.044 40 00-.028.122zm4.543-.122a3.044 2.455 50 00-.04-.162 3.044 2.455 50 01.04.162zm-4.475-.162a2.455 3.044 40 01.041-.127 2.455 3.044 40 00-.04.127zm4.389-.143a3.044 2.455 50 00-.043-.13 3.044 2.455 50 01.011.035 3.044 2.455 50 01.032.095zm-4.299-.13a2.455 3.044 40 01.064-.151 2.455 3.044 40 00-.064.152zm4.192-.151a3.044 2.455 50 00-.054-.123 3.044 2.455 50 01.02.047 3.044 2.455 50 01.034.076zm-4.074-.123a2.455 3.044 40 01.073-.138 2.455 3.044 40 00-.073.138zm3.938-.155a3.044 2.455 50 00-.06-.112 3.044 2.455 50 01.025.047 3.044 2.455 50 01.035.065zm-3.796-.112a2.455 3.044 40 01.08-.125 2.455 3.044 40 00-.08.125zm3.647-.139a3.044 2.455 50 00-.075-.115 3.044 2.455 50 01.038.058 3.044 2.455 50 01.037.057zm-3.484-.115a2.455 3.044 40 01.094-.125 2.455 3.044 40 00-.094.125zm3.315-.125a3.044 2.455 50 00-.101-.132 3.044 2.455 50 01.101.132zm-3.119-.132a2.455 3.044 40 01.138-.15 2.455 3.044 40 00-.138.15zm2.887-.143a3.044 2.455 50 00-.101-.107 3.044 2.455 50 01.101.107zm-2.653-.109a2.455 3.044 40 01.11-.102 2.455 3.044 40 00-.11.102zm2.426-.114a3.044 2.455 50 00-.092-.082 3.044 2.455 50 01.092.082zm-2.196-.094a2.455 3.044 40 01.11-.087 2.455 3.044 40 00-.11.087zm1.961-.101a3.044 2.455 50 00-.103-.078 3.044 2.455 50 01.103.078zm-1.728-.079a2.455 3.044 40 01.122-.08 2.455 3.044 40 00-.122.08zm1.505-.079a3.044 2.455 50 00-.132-.082 3.044 2.455 50 01.132.082zm-1.251-.084a2.455 3.044 40 01.117-.065 2.455 3.044 40 00-.117.065zm.99-.07a3.044 2.455 50 00-.124-.064 3.044 2.455 50 01.124.065zm-.734-.067a2.455 3.044 40 01.13-.057 2.455 3.044 40 00-.13.057zm.461-.061a3.044 2.455 50 00-.156-.064 3.044 2.455 50 01.156.064z" fill="#0d250f" paint-order="markers stroke fill"/><ellipse transform="rotate(-140)" cx="-341.638" cy="-29.18" rx="2.455" ry="3.044" fill="#0d250f" paint-order="markers stroke fill"/><path d="M227.147 254.75V240.853h1.139l7.424 8.847 7.424-8.847h1.139V254.75h-1.139v-12.125l-6.68 7.962-.744.886-.743-.886-6.681-7.962v12.125z" fill="#fff" paint-order="markers stroke fill"/><circle r=".512" cy="230.112" cx="229.092" fill="#0d0d0d" paint-order="markers stroke fill"/><circle cx="242.296" cy="230.112" r=".512" fill="#0d0d0d" paint-order="markers stroke fill"/><circle r=".594" cy="244.884" cx="229.107" fill="#0d250f" paint-order="markers stroke fill"/><circle cx="242.337" cy="244.884" r=".594" fill="#0d250f" paint-order="markers stroke fill"/></g></svg>