<svg xmlns="http://www.w3.org/2000/svg" width="129.732" height="173.104" viewBox="0 0 34.325 45.8"><path d="M0 0h34.325v45.8H0z" fill="none"/><path d="M17.987 20.538c-.484-.4-2.582-.135-2.884.865-.192.636.306.882.05 1.125-.208.196-1.753.422-1.821.145-.613-2.474.421-4.029 1.072-4.069.45-.027.089.836.047 1.524-.041.687 1.717-.067 2.52-.256 1.115-.291.983-.214.947-1.219-.086-.689.725-.788.773.158.032.613.192.76.47 1.002.204.177.697.502 1.326.232.223-.096.748.397-.124.618-.873.221-1.554.706-1.52 1.158.036.452-.07.963 2.09.705 0 0 .365.183-.074.512 0 0-2.603.274-4.86 1.06-1.344.468-3.613.671-3.598.17.016-.5.43-.35.791-.368.956-.046 3.207.35 4.534-1.333.403-.724.695-1.671.261-2.029zm-3.748 7.57c-.313.189-.598.808-.15 1.255.326.328 1.948.323 2.326-.103.407-.46.27-1.166-.207-1.372-.639-.275-1.409-.118-1.97.22zm3.488-2.47c-.313.188-.597.807-.15 1.255.326.328 1.948.323 2.326-.104.407-.459.27-1.165-.207-1.37-.638-.277-1.409-.12-1.969.218zm-3.488.568c-.313.189-.598.808-.15 1.255.326.328 1.948.323 2.326-.103.407-.46.27-1.165-.207-1.372-.639-.275-1.409-.118-1.97.22zm5.37 6.5c.249-.206.874-.322 1.5.147.43.323.785.95.549 1.936-.307 1.284-1.138-.137-1.498-.858-.176-.358-.987-1.28-1.681.09 0 0-.146 1.864 2.192 2.705 0 0 2.1 1.245 2.905-1.389.874-2.858 1.315-3.54.658-4.129-.352-.315-2.541-.398-3.812-.094-1.439.344-2.663.272-2.894.842-.24.59-.086 1.284.094 1.401.369.241 1.421-.197 1.988-.652zm-1.917-5.158c-.313.188-.597.807-.15 1.255.326.328 1.948.323 2.326-.103.407-.46.27-1.166-.207-1.372-.639-.275-1.409-.118-1.969.22zm5.53-.88c.214.072.419.404.055.459-.417.062-2.679-.571-1.723 2.164 0 0-1.125.038-1.68.129-.78.128-2.271-.16-2.299.58l-.037.982s1.603-.344 2.688-.516c1.668-.265 1.55-.56 3.798-.569.671-.01 1.09.706 1.498 1.163 1.416 1.585 2.491 2.016 1.796 2.054-.924.05-1.014-.2-1.482.013-.471.215-1.022 3.587-5.439 6.936-.397.301.056-1.476-.402-2.241-.441-.738-1.67-1.4-1.89-3.004-.07-.506-.621-.575-.903-.337-.374.315-1.768.566-2.058.4-.332-.19-.58-.638.34-.76.276-.036 1.292.272 1.266-.956-.025-1.237-1.515-.73-2.403-.684-1.388.07-1.24 1.395-1.24 1.395 1.615 5.361.84 4.806.84 4.806-1.072-.943-1.515-1.826-1.588-2.072-.106-.355-.247-.852-.062-2.524.157-1.428-.84-1.117-1.112-.941-1.812 1.17-4.415.624-5.077.359-.287-.115-.445-.525-.12-.545.691-.044 3.211.072 4.16-.217 1.311-.401 1.298-.755 1.443-.799.233-.07 1.016.038 1.125.07.722.186 2.885.124 3.596-.167.36-.147.45-.521.488-.872.14-1.314-1.321-.975-2.688-.78-1.102.158-1.233.54-1.221.194.117-3.401-1.11-3.864-.839-4.276.163-.248.02.26 6.16-1.2 1.242-.295 1.999-.443 2.248-.196.29.287.227.507.888 1.086.948.831 1.261.655 1.875.865z" fill="#a41514" stroke="#a41514" stroke-width=".265"/><path d="M18.331 9.742c.38-.191 1.718.037 1.462 1.133-.292 1.535-.567 2.46-1.692 2.644-.79.129-1.622.076-1.414-1.11.142-.808 1.005-2.345 1.644-2.667zm-2.197 1.188c.366.214-.239 2.603-1.427 3.23-.848.446-1.643.478-1.857.186-.239-.326-.245-5.476 0-5.627 1.914-1.177 1.445-1.972 1.243-2.247-.315-.428-.351-1.395-.53-1.81-.293-.675-1.148-.623-1.243-.182-.102.474.171 2.253-.32 3.42-.363.866-2.676 3.758-3.425 4.18-.494.28-.392.46-.391.905 0 .264.382.877.82.073.162-.296 1.355-1.434 1.933-1.861.313-.231 1.041-.213.452 3.88-.036.247-.506-.045-.324.704.07.285.892 1.494 1.72 1.912.197.1-.161-1.722.132-2.083.253-.31 1.426-.541 2.074-.541 1.43-.046 2.894-.288 3.422-.652.625-.43 5.03-1.375 7.92.423.796.494.64-.221.311-.713-1.076-1.613-2.309-2.402-4.786-1.845-.371.083-.6.16-.392-2.031.025-.258 1.219.076 1.263-.043.058-.155-1.564-2.2-2.78-1.888-1.432.366-.761-1.803-.575-2.06.3-.414 1.465-.096 2.097-.129.663-.034 1.44-.044.877-.559-.29-.266-1.37-1.353-2.312-1.339-.68.01-2.073 1.072-3.017 1.548-.36.18-2.199.878-.15 1.18.895.131 1.008 1.995-.37 2.688-.772.388-1.515.086-1.884.205-.374.12-.56.683-.132.93.385.223 1.466.038 1.651.146z" stroke="#000" stroke-width=".265"/></svg>