<svg xmlns="http://www.w3.org/2000/svg" width="129.732" height="173.104" viewBox="0 0 34.325 45.8"><path d="M0 0h34.325v45.8H0z" fill="none"/><path d="M18.24 21.196c-.484-.4-2.582-.135-2.883.864-.192.637.306.883.049 1.126-.208.196-1.752.422-1.821.144-.612-2.473.422-4.028 1.072-4.068.45-.027.089.836.048 1.523-.042.688 1.716-.066 2.52-.255 1.114-.292.982-.214.946-1.22-.086-.688.725-.788.774.159.03.612.19.76.469 1.001.204.178.697.503 1.326.233.224-.097.749.396-.124.618-.873.22-1.554.706-1.519 1.158.035.452-.07.962 2.089.705 0 0 .365.183-.074.512 0 0-2.603.274-4.86 1.06-1.344.468-3.613.67-3.597.17.015-.5.429-.35.79-.368.956-.047 3.208.35 4.534-1.333.404-.724.695-1.671.262-2.03zm-3.748 7.57c-.313.188-.597.807-.15 1.255.327.328 1.948.323 2.326-.104.407-.459.27-1.165-.207-1.37-.638-.276-1.409-.12-1.969.219zm3.488-2.47c-.312.188-.597.807-.15 1.255.327.327 1.948.322 2.326-.104.407-.459.27-1.165-.207-1.371-.638-.276-1.408-.119-1.969.22zm-3.488.568c-.313.188-.597.807-.15 1.255.327.328 1.948.323 2.326-.104.407-.459.27-1.165-.207-1.37-.638-.276-1.409-.12-1.969.219zm5.371 6.5c.248-.206.873-.323 1.5.147.43.323.784.95.548 1.936-.307 1.283-1.138-.137-1.498-.859-.175-.357-.987-1.279-1.681.092 0 0-.146 1.863 2.192 2.704 0 0 2.1 1.245 2.905-1.389.875-2.858 1.315-3.541.658-4.129-.352-.315-2.54-.398-3.811-.094-1.44.343-2.664.272-2.895.841-.24.591-.086 1.284.094 1.402.37.241 1.422-.197 1.988-.652zm-1.918-5.158c-.312.188-.597.807-.15 1.255.327.328 1.948.323 2.326-.104.407-.459.27-1.165-.207-1.37-.638-.277-1.408-.12-1.969.219zm5.531-.88c.213.072.418.404.054.458-.417.063-2.679-.57-1.723 2.165 0 0-1.125.038-1.68.129-.78.127-2.271-.16-2.299.58l-.036.982s1.602-.345 2.687-.517c1.668-.264 1.551-.559 3.798-.568.671-.01 1.091.706 1.499 1.163 1.415 1.584 2.49 2.016 1.796 2.054-.925.05-1.015-.2-1.482.013-.472.215-1.023 3.587-5.44 6.936-.397.3.057-1.476-.401-2.241-.442-.738-1.67-1.4-1.89-3.005-.07-.505-.622-.574-.904-.337-.374.316-1.768.567-2.058.401-.332-.19-.579-.638.34-.76.276-.036 1.292.271 1.267-.956-.026-1.237-1.516-.73-2.403-.684-1.389.07-1.24 1.395-1.24 1.395 1.614 5.361.84 4.806.84 4.806-1.073-.943-1.515-1.826-1.589-2.072-.105-.355-.246-.852-.062-2.524.157-1.429-.84-1.117-1.112-.941-1.812 1.17-4.415.623-5.076.359-.288-.115-.446-.525-.12-.545.69-.044 3.21.072 4.158-.218 1.313-.4 1.3-.755 1.444-.798.233-.07 1.016.038 1.125.07.722.186 2.885.124 3.596-.167.36-.148.451-.522.488-.872.14-1.314-1.32-.975-2.688-.78-1.102.157-1.233.54-1.221.194.118-3.401-1.11-3.864-.839-4.277.163-.247.02.261 6.16-1.2 1.242-.295 2-.442 2.249-.195.289.287.227.507.888 1.086.948.83 1.26.655 1.874.865z" fill="#a41514" stroke="#a41514" stroke-width=".265"/><path d="M11.477 12.738c.117.093 1.676.688 1.912-.078.084-.273.286-3.79.078-4.03-.433-.498-2.177-.269-2.752.31-.237.237-.166 3.05.762 3.798zm3.27-1.461c.064.073 1.18.122 1.407-.064 1.063-.865 1.3-3.193 1.162-3.966-.051-.291-2.354-.36-2.428.13 0 0-.5 3.482-.14 3.9zm4.77-4.915c-.396.303.076 2.081-.813 2.649-1.087.693-1.133 1.833-.154 2.417 1.009.603.947 1.066 2.11.976 1.303-.1 2.826-4.92 1.69-6.045-.349-.345-2.443-.296-2.834.003zM9.85 8.445c.412-.058 13.12-8.115 16.042.091.157.44-.442.136-.914-.219 0 0-.576 1.71-1.319 3.146-1.342 2.59-3.14 3.42-3.65 3.285-1.555-.413-.24-1.287-.95-1.966-1.932-1.849-4.035.862-6.249.614-.96-.107.034 1.014-.808 1.625-.375.273-1.566-.835-1.924-1.237-.565-.634-3.824-5.07-1.557-5.945.605-.103.857.674 1.33.606z" stroke="#000" stroke-width=".265"/></svg>