<svg xmlns="http://www.w3.org/2000/svg" width="129.732" height="173.104" viewBox="0 0 34.325 45.8"><path d="M0 0h34.325v45.8H0z" fill="none"/><path d="M17.883 22.46c-.485-.401-2.583-.136-2.884.864-.192.636.305.882.049 1.125-.208.196-1.752.423-1.821.145-.612-2.474.422-4.029 1.072-4.068.45-.028.089.835.047 1.523-.041.687 1.717-.067 2.52-.256 1.115-.291.983-.214.947-1.219-.086-.689.725-.788.773.158.032.613.192.76.47 1.002.204.177.697.502 1.326.232.224-.096.749.397-.124.618-.873.221-1.554.706-1.519 1.158.035.452-.07.963 2.088.706 0 0 .366.182-.073.511 0 0-2.603.274-4.86 1.06-1.344.468-3.613.671-3.597.17.015-.5.429-.35.79-.367.956-.047 3.208.349 4.534-1.333.403-.724.695-1.672.262-2.03zm-3.749 7.57c-.313.188-.597.807-.15 1.254.326.328 1.948.323 2.326-.103.407-.46.27-1.165-.207-1.371-.638-.276-1.409-.119-1.969.22zm3.488-2.471c-.312.188-.597.807-.15 1.255.327.328 1.948.323 2.326-.104.407-.459.27-1.165-.207-1.37-.638-.276-1.408-.12-1.969.219zm-3.488.568c-.313.189-.597.808-.15 1.255.326.328 1.948.323 2.326-.103.407-.46.27-1.165-.207-1.371-.638-.276-1.409-.119-1.969.22zm5.37 6.5c.249-.206.874-.322 1.5.147.43.323.785.95.549 1.936-.307 1.284-1.138-.137-1.498-.858-.176-.358-.987-1.28-1.681.091 0 0-.146 1.864 2.192 2.704 0 0 2.1 1.245 2.905-1.388.875-2.859 1.315-3.542.658-4.13-.352-.314-2.54-.397-3.811-.094-1.44.344-2.664.273-2.895.842-.24.59-.086 1.284.094 1.402.37.24 1.422-.198 1.988-.652zm-1.917-5.158c-.313.189-.597.808-.15 1.255.327.328 1.948.323 2.326-.103.407-.46.27-1.165-.207-1.371-.638-.276-1.408-.119-1.969.219zm5.531-.88c.213.072.418.405.054.459-.417.062-2.679-.571-1.723 2.164 0 0-1.125.039-1.68.13-.78.127-2.271-.16-2.299.58l-.036.981s1.602-.344 2.687-.516c1.668-.265 1.551-.56 3.798-.569.671-.01 1.091.707 1.499 1.163 1.415 1.585 2.49 2.017 1.795 2.054-.924.05-1.014-.2-1.482.013-.471.216-1.022 3.587-5.439 6.936-.397.301.056-1.476-.402-2.24-.441-.739-1.67-1.4-1.89-3.005-.069-.506-.621-.575-.903-.337-.374.315-1.768.566-2.058.4-.332-.19-.58-.638.34-.76.276-.036 1.292.272 1.267-.955-.026-1.238-1.516-.73-2.403-.685-1.389.07-1.24 1.395-1.24 1.395 1.614 5.362.84 4.806.84 4.806-1.073-.943-1.516-1.826-1.589-2.071-.105-.356-.246-.852-.062-2.524.157-1.43-.84-1.118-1.112-.942-1.812 1.17-4.415.624-5.077.36-.287-.116-.445-.526-.119-.546.69-.043 3.21.072 4.158-.217 1.313-.401 1.3-.755 1.444-.799.233-.07 1.016.038 1.125.07.722.186 2.885.125 3.596-.167.36-.147.451-.521.488-.871.14-1.315-1.321-.976-2.688-.78-1.102.157-1.233.54-1.221.193.117-3.4-1.11-3.864-.839-4.276.163-.248.02.26 6.16-1.2 1.242-.295 2-.442 2.248-.196.29.287.228.507.889 1.087.947.83 1.26.654 1.874.864z" fill="#a41514" stroke="#a41514" stroke-width=".265"/><path d="M13.933 12.833c-.973-1.452-.798 4.031-4.97 6.76-.526.344.667.27 1.133.11.467-.162 2.334-.678 5.024-3.923.396-.478.695-.767 1.127-.788.431-.021-1.016-.223-2.314-2.16zM20.748 17.184c.578 1.958 1.296 1.904 1.779 1.915.482.012 1.388-.719 1.199-2.393-.193-1.706-3.125-3.744-5.428-3.643-.793.034-1.723.258-1.368.606.996.977 3.18 1.354 3.818 3.515zM11.908 11.13c1.034-.394 9.137-3.073 13.877-.797 0 0 1.887.91.755-.625-.778-1.053-1.83-2.651-3.372-2.805-.704-.07-2.625.892-3.623 1.402-2.023 1.033-3.291-1.428-1.353-1.39 2.429.104.467-.83.057-1.125-1.378-.992-1.553-2.87-1.975-2.13-.187.357-1.092 1.353-1.775 1.353-.682 0-.136.582.457.749.798.224 1.118 1.517.877 2.503-.312 1.28-6.467 1.754-7.95 1.718-1.298-.032-1.22.113-1.011.376 1.861 2.35 3.747 1.26 5.036.77z" stroke="#000" stroke-width=".265"/></svg>