<svg xmlns="http://www.w3.org/2000/svg" width="129.732" height="173.104" viewBox="0 0 34.325 45.8"><path d="M0 0h34.325v45.8H0z" fill="none"/><path d="M7.76 9.068s.474 3.416 6.01.804c0 0 5.474-2.287 12.946.375 2.084.743.688-1.772-1.86-3.827-1.105-.89-3.32-.246-5.81.292 0 0-6.39 1.88-10.52 1.406 0 0-1.132.11-.767.95z" stroke="#000" stroke-width=".265"/><path d="M18.24 20.472c-.484-.4-2.582-.135-2.883.865-.192.636.306.882.049 1.125-.208.196-1.752.423-1.821.145-.612-2.474.422-4.029 1.072-4.068.45-.028.089.836.048 1.523-.042.687 1.716-.067 2.52-.255 1.114-.292.982-.215.946-1.22-.086-.689.725-.788.774.159.03.612.19.76.469 1.001.204.178.697.502 1.326.232.224-.096.749.397-.124.618-.873.221-1.554.706-1.519 1.158.035.452-.07.963 2.089.706 0 0 .365.182-.074.511 0 0-2.603.274-4.86 1.06-1.344.468-3.613.671-3.597.17.015-.5.429-.35.79-.367.956-.047 3.208.349 4.534-1.333.404-.724.695-1.672.262-2.03zm-3.748 7.57c-.313.189-.597.808-.15 1.255.327.328 1.948.323 2.326-.103.407-.46.27-1.165-.207-1.371-.638-.276-1.409-.119-1.969.22zm3.488-2.47c-.312.188-.597.807-.15 1.255.327.328 1.948.323 2.326-.103.407-.46.27-1.166-.207-1.372-.638-.275-1.408-.118-1.969.22zm-3.488.568c-.313.189-.597.808-.15 1.256.327.327 1.948.322 2.326-.104.407-.46.27-1.165-.207-1.371-.638-.276-1.409-.119-1.969.22zm5.371 6.5c.248-.205.873-.322 1.5.147.43.323.784.95.548 1.936-.307 1.284-1.138-.137-1.498-.858-.175-.357-.987-1.28-1.681.091 0 0-.146 1.864 2.192 2.704 0 0 2.1 1.245 2.905-1.388.875-2.859 1.316-3.541.658-4.13-.352-.314-2.54-.397-3.811-.094-1.44.344-2.664.273-2.895.842-.24.59-.086 1.284.094 1.402.37.24 1.422-.198 1.988-.652zm-1.918-5.158c-.312.189-.597.808-.15 1.255.327.328 1.948.323 2.326-.103.407-.46.27-1.165-.207-1.371-.638-.276-1.408-.119-1.969.219zm5.531-.88c.213.072.418.405.054.459-.417.062-2.679-.571-1.723 2.164 0 0-1.125.039-1.68.13-.78.127-2.271-.16-2.299.58l-.036.982s1.602-.345 2.687-.517c1.668-.265 1.551-.56 3.798-.569.671-.01 1.091.707 1.499 1.163 1.415 1.585 2.49 2.017 1.796 2.054-.925.05-1.015-.2-1.482.014-.472.215-1.023 3.586-5.44 6.935-.397.301.057-1.476-.401-2.24-.442-.739-1.67-1.4-1.89-3.005-.07-.506-.622-.575-.904-.337-.374.316-1.768.566-2.058.401-.332-.19-.579-.639.34-.76.276-.037 1.292.27 1.267-.956-.026-1.238-1.516-.73-2.403-.685-1.389.07-1.24 1.395-1.24 1.395 1.614 5.362.84 4.806.84 4.806-1.073-.943-1.515-1.826-1.589-2.071-.105-.356-.246-.852-.062-2.524.157-1.43-.84-1.118-1.112-.942-1.812 1.17-4.415.624-5.076.36-.288-.116-.446-.525-.12-.546.69-.043 3.21.073 4.158-.217 1.313-.401 1.3-.755 1.444-.798.233-.07 1.016.037 1.125.07.722.185 2.885.124 3.596-.168.36-.147.451-.521.488-.871.14-1.314-1.32-.976-2.688-.78-1.102.157-1.233.54-1.221.193.118-3.4-1.11-3.864-.839-4.276.163-.247.02.261 6.16-1.2 1.242-.295 2-.442 2.249-.195.289.286.227.506.888 1.086.948.83 1.26.654 1.874.864z" fill="#a41514" stroke="#a41514" stroke-width=".265"/></svg>