<svg xmlns="http://www.w3.org/2000/svg" width="129.732" height="173.104" viewBox="0 0 34.325 45.8"><path d="M0 0h34.325v45.8H0z" fill="none"/><path d="M18.193 20.301c-.485-.4-2.583-.135-2.884.865-.192.636.305.882.049 1.125-.208.196-1.752.423-1.821.145-.612-2.474.422-4.029 1.072-4.069.45-.027.089.836.047 1.524-.041.687 1.717-.067 2.52-.256 1.115-.291.983-.214.947-1.219-.086-.689.725-.788.774.158.03.613.19.76.469 1.002.204.177.697.502 1.326.232.224-.096.749.397-.124.618-.873.221-1.554.706-1.519 1.158.035.452-.07.963 2.089.705 0 0 .365.183-.074.512 0 0-2.603.274-4.86 1.06-1.344.468-3.613.671-3.597.17.015-.5.429-.35.79-.368.956-.046 3.208.35 4.534-1.333.403-.724.695-1.671.262-2.029zm-3.749 7.57c-.313.189-.597.808-.15 1.255.327.328 1.948.323 2.326-.103.407-.46.27-1.166-.207-1.372-.638-.275-1.409-.118-1.969.22zm3.488-2.47c-.312.188-.597.807-.15 1.255.327.328 1.948.323 2.326-.104.407-.459.27-1.165-.207-1.37-.638-.277-1.408-.12-1.969.219zm-3.488.568c-.313.189-.597.808-.15 1.255.327.328 1.948.323 2.326-.103.407-.46.27-1.165-.207-1.371-.638-.276-1.409-.119-1.969.219zm5.37 6.5c.25-.206.874-.322 1.5.147.431.323.785.95.549 1.936-.307 1.284-1.138-.137-1.498-.858-.175-.358-.987-1.28-1.681.09 0 0-.146 1.865 2.192 2.705 0 0 2.1 1.245 2.905-1.389.875-2.858 1.315-3.54.658-4.129-.352-.315-2.54-.398-3.811-.094-1.44.344-2.664.272-2.895.842-.24.59-.086 1.284.094 1.401.37.242 1.422-.197 1.988-.652zm-1.917-5.158c-.312.188-.597.807-.15 1.255.327.328 1.948.323 2.326-.103.407-.46.27-1.166-.207-1.372-.638-.275-1.408-.118-1.969.22zm5.531-.88c.213.072.418.404.054.459-.417.062-2.679-.571-1.723 2.164 0 0-1.125.038-1.68.129-.78.128-2.271-.16-2.299.58l-.036.982s1.602-.344 2.687-.516c1.668-.265 1.551-.56 3.798-.569.671-.01 1.091.706 1.499 1.163 1.415 1.585 2.49 2.016 1.796 2.054-.925.05-1.015-.2-1.482.013-.472.215-1.023 3.587-5.44 6.936-.397.301.057-1.476-.401-2.241-.442-.738-1.67-1.4-1.89-3.004-.07-.506-.622-.575-.904-.337-.374.315-1.768.566-2.058.4-.332-.19-.58-.638.34-.76.276-.036 1.292.272 1.267-.955-.026-1.238-1.516-.73-2.403-.685-1.389.07-1.24 1.395-1.24 1.395 1.614 5.362.84 4.806.84 4.806-1.073-.943-1.515-1.826-1.589-2.072-.105-.355-.246-.852-.062-2.524.157-1.428-.84-1.117-1.112-.941-1.812 1.17-4.415.624-5.077.359-.287-.115-.445-.525-.119-.545.69-.044 3.21.072 4.158-.217 1.313-.401 1.3-.755 1.444-.799.233-.07 1.016.038 1.125.07.722.186 2.885.124 3.596-.167.36-.147.451-.521.488-.872.14-1.314-1.32-.975-2.688-.78-1.102.158-1.233.54-1.221.194.118-3.401-1.11-3.864-.839-4.276.163-.248.02.26 6.16-1.2 1.242-.295 2-.443 2.249-.196.289.287.227.507.888 1.086.948.831 1.26.655 1.874.865z" fill="#a41514" stroke="#a41514" stroke-width=".265"/><path d="M13.59 7.498s-4.002.446-4.01.64c-.027.569 1.574 1.483 1.898 1.443 1.188-.146 2-.224 2.114-.116.114.107.047 1.138-.298 1.962-.338.807-1.48 2.666-2.759 3.92-.597.586-.471.995-.123.834.35-.162 5.431-3.201 5.252-7.43-.011-.266-.011-.803.583-.89.37-.055 1.72-.311 2.103-.062.306.2-.025.804-.257 1.244-.208.393-1.33 3.383.039 4.78 1.214 1.24 2.675 1.311 4.573.878 2.754-.628 2.891-.702 3.107-.866.277-.211.307-.619.157-.773-.15-.154-.297-.135-.634-.608-.42-.588-.793-3.808-1.323-2.018-.53 1.79-.986 2.312-2.54 2.33-.88.044-2.821.16-2.534-1.278.266-1.335 2.035-3.932 2.48-4.304.423-.353.755-.532.572-.686-.22-.184-.62-.382-1.425-1.303-.175-.2-.427-.684-.694-.684-.268 0-.197.513-.914 1.145-.52.458-1.372.797-2.044.797-.923 0-.96-.224-1.454-1.005-.76-1.2-1.898-1.74-1.907-1.033a52.12 52.12 0 00.039 3.083z" stroke="#000" stroke-width=".265"/></svg>