<svg xmlns="http://www.w3.org/2000/svg" width="129.732" height="173.104" viewBox="0 0 34.325 45.8"><path d="M0 0h34.325v45.8H0z" fill="none"/><g paint-order="markers stroke fill" transform="translate(-56.735 -109.51)"><circle cx="67.541" cy="122.54" r="4.7" fill="#222e1d"/><circle r="3.324" cy="122.54" cx="67.541" fill="#fff"/><circle cx="67.541" cy="122.54" r="2.325" fill="#222e1d"/><circle r="1.667" cy="122.54" cx="67.541" fill="#fff"/><circle cx="67.541" cy="122.54" r=".717" fill="#222e1d"/><circle r="4.7" cy="142.281" cx="80.254" fill="#222e1d"/><circle cx="80.254" cy="142.281" r="3.324" fill="#fff"/><circle r="2.325" cy="142.281" cx="80.254" fill="#222e1d"/><circle cx="80.254" cy="142.281" r="1.667" fill="#fff"/><circle r=".717" cy="142.281" cx="80.254" fill="#222e1d"/><circle cx="80.254" cy="122.54" r="4.7" fill="#0d0d0d"/><circle r="3.324" cy="122.54" cx="80.254" fill="#fff"/><circle cx="80.254" cy="122.54" r="2.325" fill="#0d0d0d"/><circle r="1.667" cy="122.54" cx="80.254" fill="#fff"/><circle cx="80.254" cy="122.54" r=".717" fill="#0d0d0d"/><circle r="4.7" cy="142.281" cx="67.541" fill="#0d0d0d"/><circle cx="67.541" cy="142.281" r="3.324" fill="#fff"/><circle r="2.325" cy="142.281" cx="67.541" fill="#0d0d0d"/><circle cx="67.541" cy="142.281" r="1.667" fill="#fff"/><circle r=".717" cy="142.281" cx="67.541" fill="#0d0d0d"/></g></svg>