<svg xmlns="http://www.w3.org/2000/svg" width="129.732" height="173.104" viewBox="0 0 34.325 45.8"><path d="M0 0h34.325v45.8H0z" fill="none"/><g transform="translate(24.846 -109.149)"><path d="M-.595 122.903a7.089 7.089 0 01-7.09 7.089 7.089 7.089 0 01-7.088-7.089 7.089 7.089 0 017.089-7.089 7.089 7.089 0 017.089 7.09z" fill="#222e1d"/><circle r="5.371" cy="122.903" cx="-7.684" fill="#fff"/><circle r="4.421" cy="122.903" cx="-7.684" fill="#222e1d"/><circle r="3.362" cy="122.903" cx="-7.684" fill="#fff"/><circle r="3.544" cy="122.903" cx="-7.684" fill="#fff"/><circle r="2.814" cy="122.903" cx="-7.684" fill="#222e1d"/><circle r="1.717" cy="122.903" cx="-7.684" fill="#fff"/><circle r=".804" cy="122.903" cx="-7.684" fill="#222e1d"/></g><g transform="translate(24.846 -109.149)"><path d="M-.595 141.195a7.089 7.089 0 01-7.09 7.088 7.089 7.089 0 01-7.088-7.088 7.089 7.089 0 017.089-7.09 7.089 7.089 0 017.089 7.09z" fill="#0d0d0d"/><circle cx="-7.684" cy="141.195" r="5.371" fill="#fff"/><circle cx="-7.684" cy="141.195" r="4.421" fill="#0d0d0d"/><circle cx="-7.684" cy="141.195" r="3.362" fill="#fff"/><circle cx="-7.684" cy="141.195" r="3.544" fill="#fff"/><circle cx="-7.684" cy="141.195" r="2.814" fill="#0d0d0d"/><circle cx="-7.684" cy="141.195" r="1.717" fill="#fff"/><circle cx="-7.684" cy="141.195" r=".804" fill="#0d0d0d"/></g></svg>