<svg xmlns="http://www.w3.org/2000/svg" width="129.732" height="173.104" viewBox="0 0 34.325 45.8"><path d="M0 0h34.325v45.8H0z" fill="none"/><g paint-order="markers stroke fill" transform="translate(-96.63 -109.407)"><circle cx="113.791" cy="132.307" r="4.703" fill="#a41514"/><circle r="3.462" cy="132.307" cx="113.791" fill="#fff"/><circle cx="113.791" cy="132.307" r="2.635" fill="#a41514"/><circle r="1.654" cy="132.307" cx="113.791" fill="#fff"/><circle cx="113.791" cy="132.307" r=".702" fill="#a41514"/><circle cx="107.694" cy="122.437" r="4.703" fill="#222e1d"/><circle r="3.462" cy="122.437" cx="107.694" fill="#fff"/><circle r="2.635" cy="122.437" cx="107.694" fill="#222e1d"/><circle r="1.654" cy="122.437" cx="107.694" fill="#fff"/><circle cx="107.694" cy="122.437" r=".702" fill="#222e1d"/><circle r="4.703" cy="142.177" cx="119.889" fill="#222e1d"/><circle cx="119.889" cy="142.177" r="3.462" fill="#fff"/><circle cx="119.889" cy="142.177" r="2.635" fill="#222e1d"/><circle cx="119.889" cy="142.177" r="1.654" fill="#fff"/><circle r=".702" cy="142.177" cx="119.889" fill="#222e1d"/><circle r="4.703" cy="122.437" cx="119.889" fill="#0d0d0d"/><circle cx="119.889" cy="122.437" r="3.462" fill="#fff"/><circle cx="119.889" cy="122.437" r="2.635" fill="#0d0d0d"/><circle cx="119.889" cy="122.437" r="1.654" fill="#fff"/><circle r=".702" cy="122.437" cx="119.889" fill="#0d0d0d"/><circle cx="107.694" cy="142.177" r="4.703" fill="#0d0d0d"/><circle r="3.462" cy="142.177" cx="107.694" fill="#fff"/><circle r="2.635" cy="142.177" cx="107.694" fill="#0d0d0d"/><circle r="1.654" cy="142.177" cx="107.694" fill="#fff"/><circle cx="107.694" cy="142.177" r=".702" fill="#0d0d0d"/></g></svg>