<svg xmlns="http://www.w3.org/2000/svg" width="129.732" height="173.104" viewBox="0 0 34.325 45.801"><path d="M0 0h34.325v45.8H0z" fill="none"/><path d="M18.032 16.643c-.205.247-.228 3.568-.102 4.006.035.124 2.458.426 3.114-.07.899-.678 1.686-4.314.65-4.52-1.529-.302-3.378.24-3.662.584zM14.826 7.42c.558-1.172 2.88 3.127 4.75 2.942.477-.048.52.53.01.685-.732.22-1.522.41-1.69.855-.099.259 0 1.193 0 2.28 0 .876 1.058.846 1.9.327 1.632-1.007 2.894-.93 5.167 1.579 1.05 1.16 2.678 1.525 2.113 2.157-.278.311-1.33.071-2.01.366-.952.413-1.694 4.16-5.088 5.07 0 0-1.023.256-1.096-.439-.073-.694-.987-.367-.987-.074 0 .292-.036 9.451-.036 15.02 0 .338.036.803-.622.803-.657 0-.672-.712-.697-1.14-.072-1.188-.663-12.98-.786-15.303-.04-.733-1.4-.834-1.669.006-.413 1.292.646 1.99-1.266 1.215 0 0-1.57-.722-1.867-1.244-.53-.934-.576-3.998-1.948-4.51-.786-.294.642-1.717 2.04-1.11 1.53.664 1.344-.497 2.418-.296 1.59.297 1.594-.445 1.592-.747-.009-1.222-.025-4.75-.025-5.173 0-1.14-3.422.092-2.324-.98.595-.582 1.288-.542 2.12-2.289zm-2.401 11.452c.108.677.466 2.464.738 2.562 1.017.366 1.934-.103 2.21-.823.183-.475.051-1.831-.023-2.412-.24-1.86-3.144-.7-2.925.673z" fill="#a41514" stroke="#a41514" stroke-width=".265"/></svg>