<svg xmlns="http://www.w3.org/2000/svg" width="129.732" height="173.104" viewBox="0 0 34.325 45.801"><path d="M0 0h34.325v45.8H0z" fill="none"/><path d="M16.152 22.916c0 .32-1.361 1.233-2.48.421-1.192-.865-1.718-3.379-.935-4.162.499-.499 2.41-1.649 2.9-.807.491.842.14 1.485-.42 1.719-.562.234-1.778.467-1.147 1.005.632.538 2.105-.417 2.105.515 0 .515-.023.97-.023 1.31zm3.04-5.659c.44-.078 3.39-1.047 3.109 1.339-.281 2.385-1.307 5.503-2.174 5.537-.7.026-1.146-.375-1.122-1.053.023-.678-1.848.398-1.871-.327-.023-.725-.28-2.269.35-2.362.364-.054 1.349-.077 1.886-.09.633-.014 1.615-.023 1.23-.6-.43-.642-.986-1.365-2.156-.667-.98.585-1.454.027-1.456-.49-.002-.496.24-1.1.87-1.123a9.542 9.542 0 001.334-.164zm9.376 12.12c-2.724-.528-7.329-2.415-7.578-3.524-.13-.573.377-1.125 1.585-2.597 1.704-2.078 1.28-3.554 2.651-3.946.463-.133 1.038-.452 1.038-.75 0-.297-2.718-.743-3.286-1.768-.569-1.027-3.089-.878-4.036-.68-.946.197-1.693.665-1.92.066-.49-1.297 2.45-2.776 3.211-2.643.76.132 2.977.148 1.158-.976-1.82-1.125-2.138.594-3.333.727-.867.097-.795-.507-.638-1.247.208-.982 3.3-.925.772-1.803-.975-.339-1.044-1.45-1.889-1.416-.321.013-1.834 1.856-1.834 1.939 0 .211.864.16.864.581 0 .421.187 2.83 0 3.017-.187.187-4.083-.128-3.414.421.912.748 1.927.845 2.865.55.972-.306 1.119 1.789.666 2.058-.342.203-1.386.176-1.805.394-.677.351-.994.375-1.576.094-.532-.257-.97-.325-1.611-.22-.486.079.195 1.554.452 1.882.257.327.531.463.448 1.627-.147 2.032 2.315 2.876 2.315 3.367 0 .491-6.184 5.514-6.629 5.912-.444.397 1.858.66 3.355-.346 1.496-1.006 3.975-4.21 4.724-4.093.748.117.863.679.84 1.684-.023 1.006.274 6.416 0 6.49-.153.04-2.232-1.359-2.88-1.333-.588.023-.257.765.59 1.263 1.036.609 1.874 1.237 2.372 2.22.342.675.602 2.192.884 2.192.282 0 .72-.659.72-2.179 0-1.52-.305-9.962 0-10.36.303-.398 1.145-.21 1.356.187.21.398 5.187 5.854 6.132 5.008 1.186-1.06 3.108-1.37 3.971-1.197.36.072.601-.38-.54-.602z" stroke="#000" stroke-width=".265"/></svg>