<svg xmlns="http://www.w3.org/2000/svg" width="129.732" height="173.104" viewBox="0 0 34.325 45.801"><path d="M0 0h34.325v45.8H0z" fill="none"/><path d="M18.254 26.259s.562 6.383 4.2 6.449c3.638.066 4.366-.86 4.333-1.554-.033-.695-1.224-2.216-2.613-1.588-1.389.628-3.274.661-3.274-1.224s-.066-2.15.265-2.083c.33.066.906.082 1.358-.072.467-.16 2.577-1.086 2.544-1.913-.033-.826-2.216-2.645-2.414-2.513-.199.132.17 1.637-.095 1.935-.265.298-1.945 1.87-2.022.744-.099-1.455-.165-7.111.397-7.376.562-.264 1.422-.694 1.422-1.025 0-.33-1.254-.14-2.513-1.345-1.008-.964-.396-2.567-1.394-1.677-.838.746-2.33 2.542-2.244 2.691.132.232 1.885.034 1.918.794.033.76 0 3.804 0 4.167 0 .333-3.407 4.503-3.407 3.523 0-1.456.117-2.192 0-2.467-.116-.273-1.958-3.016-3.054-1.92-1.052 1.053-1.675 1.872-.319 1.773 1.356-.1 1.385.22 1.385.385 0 .648.302 4.894.103 5.06-.198.165-1.89-.552-2.446-1.384-.288-.43-.384-1.22-.833-1.243-.455-.022-.899.23-.956 1.01-.165 1.39 2.152 2.473 3.375 2.473.943 0-.86 1.619-1.621 2.47-.575.643-2.6-.514-2.414.937.1.86 2.572 2.182 3.374.794.708-1.226 1.902-1.141 2.067-.612.165.529-.083 1.108.513 1.108.595 0 .727-.711.727-1.01 0-.297-.016-4.464.05-4.596.066-.132 3.555-5.259 3.522-3.605a32.212 32.212 0 00.066 2.894z" stroke="#000" stroke-width=".265"/></svg>