<svg xmlns="http://www.w3.org/2000/svg" width="129.732" height="173.104" viewBox="0 0 34.325 45.801"><path d="M0 0h34.325v45.8H0z" fill="none"/><path d="M23.01 24.928c.05 1.99-1.077 7.39-2.2 7.577-1.122.187-1.471.338-2.053-.162-.593-.51-1.992-1.171-2.039-2.598-.03-.907 1.105-1.087 1.934-1.19.475-.06.795-.139.849-.341.062-.233-.685-1.167-1.357-1.01-.555.13-.974-.175-.974-.642 0-.477 1.418-.636 1.36-1.248-.039-.42-.404-.498-1.075-.667-.31-.078 1.541-2.556 2.974-2.43 1.985.173 2.553 1.641 2.58 2.71zm-7.964-11.882c.046 1.31-.296 3.418-.485 4.044-.23.765-1.133.744-1.405.744-.417 0-1.475.132-1.555.579-.084.473 1.042.347 1.224.314.182-.033 1.438.144 1.227 1.477-.21 1.333-.135 2.024-.663 2.024-.631 0-2.028-1.657-2.028-1.31 0 1.273.028 1.958.334 2.422.386.585-1.11 1.136-1.603.863-1.015-.56-1.85-.915-1.897-.052-.034.595.507.809.668 1.395.127.461.165 1.705.165 2.746 0 1.913.511 2.67.81 3.225.553 1.025 2.003 2.245 2.003 1.335 0-.909-.034-4.164-.514-5.206-.48-1.042-1.121-3.325.681-3.16 1.803.166 2.272.326 2.289-.368.016-.695.363-1.158.876-1.158s.91.629.91 1.207c0 .58-.147 1.423-.979 1.459-.794.034-2.71.242-2.676.906.066.943 2.074.154 2.1 1.274.022.952-1.7.377-1.717 1.105-.016.727 2.12.834 2.296 1.49.17.638.159 2.38.271 2.898.084.384.346.873.44.873.096 0 .29-.41.344-.755.113-.722.439-1.536.88-1.46.678.115 1.843 1.154 1.942 1.848.1.695-.44 1.457-.309 1.722.133.264 1.197-.069 1.395-.234.199-.165 1.957-1.104 2.659-2.063.701-.96 2.058-3.998 2.408-5.964.26-1.45.589-2.349 1.392-2.561.73-.193.981-.39 1.048-.535.235-.508-.5-.45-.987-.647-.806-.328-2.394-1.022-3.221-1.849-.527-.526-.924-.775-2.479-.775-2.268 0-2.08-1.727-2.944-1.63-.852.099-.73 2.379-1.267 2.8-.339.265-1.83.454-1.748-.687.043-.602.313-1.465 1.248-2.491.443-.486 1.188-.926 1.989-1.283 1.659-.74 3.23.107 3.184-.625-.011-.187.001-.184-.627-.529-.39-.213-.545-.416-.925-.766-.327-.302-.951-.26-1.305.002-.797.591-1.17.608-1.146-.234.024-.842.625-1.842 1.01-2.065.28-.162.607-.22.607-.287 0-.068.067-.356-.613-.345-.975.014-2.352-1.144-2.56-1.867-.225-.78-1.04-.393-1.284-.253s-.887.723-.946 1.036c-.039.209 1.441.152 1.482 1.37z" stroke="#000" stroke-width=".265"/></svg>